<svg id="svg" version="1.1" xmlns="http://www.w3.org/2000/svg" xmlns:xlink="http://www.w3.org/1999/xlink" width="400" height="400" viewBox="0, 0, 400,400"><g id="svgg"><path id="path0" d="M194.800 45.000 L 194.800 47.200 192.600 47.200 L 190.400 47.200 190.400 49.400 L 190.400 51.600 188.000 51.600 L 185.600 51.600 185.600 54.000 L 185.600 56.400 183.400 56.400 L 181.200 56.400 181.200 61.000 L 181.200 65.600 176.800 65.600 L 172.400 65.600 172.400 68.000 L 172.400 70.400 165.600 70.400 L 158.800 70.400 158.800 72.600 L 158.800 74.800 151.800 74.800 L 144.800 74.800 144.800 77.000 L 144.800 79.200 140.200 79.200 L 135.600 79.200 135.600 81.400 L 135.600 83.600 131.200 83.600 L 126.800 83.600 126.800 86.000 L 126.800 88.400 124.600 88.400 L 122.400 88.400 122.400 90.600 L 122.400 92.800 118.000 92.800 L 113.600 92.800 113.600 90.600 L 113.600 88.400 111.400 88.400 L 109.200 88.400 109.200 86.000 L 109.200 83.600 99.800 83.600 L 90.400 83.600 90.400 86.000 L 90.400 88.400 88.000 88.400 L 85.600 88.400 85.600 99.800 L 85.600 111.200 88.000 111.200 L 90.400 111.200 90.400 113.400 L 90.400 115.600 92.600 115.600 L 94.800 115.600 94.800 118.000 L 94.800 120.400 92.600 120.400 L 90.400 120.400 90.400 122.600 L 90.400 124.800 88.000 124.800 L 85.600 124.800 85.600 127.000 L 85.600 129.200 83.400 129.200 L 81.200 129.200 81.200 133.800 L 81.200 138.400 79.000 138.400 L 76.800 138.400 76.800 142.800 L 76.800 147.200 74.600 147.200 L 72.400 147.200 72.400 154.000 L 72.400 160.800 70.000 160.800 L 67.600 160.800 67.600 170.000 L 67.600 179.200 65.400 179.200 L 63.200 179.200 63.200 181.400 L 63.200 183.600 58.400 183.600 L 53.600 183.600 53.600 186.000 L 53.600 188.400 51.400 188.400 L 49.200 188.400 49.200 190.600 L 49.200 192.800 47.000 192.800 L 44.800 192.800 44.800 195.000 L 44.800 197.200 42.600 197.200 L 40.400 197.200 40.400 199.800 L 40.400 202.400 42.600 202.400 L 44.800 202.400 44.800 204.600 L 44.800 206.800 47.000 206.800 L 49.200 206.800 49.200 209.000 L 49.200 211.200 51.400 211.200 L 53.600 211.200 53.600 213.400 L 53.600 215.600 58.400 215.600 L 63.200 215.600 63.200 218.000 L 63.200 220.400 65.400 220.400 L 67.600 220.400 67.600 229.600 L 67.600 238.800 70.000 238.800 L 72.400 238.800 72.400 245.600 L 72.400 252.400 74.600 252.400 L 76.800 252.400 76.800 254.600 L 76.800 256.800 79.000 256.800 L 81.200 256.800 81.200 261.200 L 81.200 265.600 83.400 265.600 L 85.600 265.600 85.600 270.200 L 85.600 274.800 88.000 274.800 L 90.400 274.800 90.400 277.000 L 90.400 279.200 92.600 279.200 L 94.800 279.200 94.800 281.400 L 94.800 283.600 92.600 283.600 L 90.400 283.600 90.400 286.000 L 90.400 288.400 88.000 288.400 L 85.600 288.400 85.600 297.600 L 85.600 306.800 88.000 306.800 L 90.400 306.800 90.400 309.000 L 90.400 311.200 94.800 311.200 L 99.200 311.200 99.200 313.400 L 99.200 315.600 104.200 315.600 L 109.200 315.600 109.200 313.400 L 109.200 311.200 111.400 311.200 L 113.600 311.200 113.600 306.800 L 113.600 302.400 115.600 302.400 L 117.600 302.400 117.600 304.600 L 117.600 306.800 120.000 306.800 L 122.400 306.800 122.400 309.000 L 122.400 311.200 126.800 311.200 L 131.200 311.200 131.200 313.400 L 131.200 315.600 135.800 315.600 L 140.400 315.600 140.400 318.000 L 140.400 320.400 144.800 320.400 L 149.200 320.400 149.200 322.600 L 149.200 324.800 156.200 324.800 L 163.200 324.800 163.200 327.000 L 163.200 329.200 172.200 329.200 L 181.200 329.200 181.200 336.200 L 181.200 343.200 183.400 343.200 L 185.600 343.200 185.600 345.400 L 185.600 347.600 188.000 347.600 L 190.400 347.600 190.400 350.000 L 190.400 352.400 192.600 352.400 L 194.800 352.400 194.800 354.600 L 194.800 356.800 197.600 356.800 L 200.400 356.800 200.400 354.600 L 200.400 352.400 202.600 352.400 L 204.800 352.400 204.800 350.000 L 204.800 347.600 207.000 347.600 L 209.200 347.600 209.200 345.400 L 209.200 343.200 211.400 343.200 L 213.600 343.200 213.600 336.200 L 213.600 329.200 222.600 329.200 L 231.600 329.200 231.600 327.000 L 231.600 324.800 238.400 324.800 L 245.200 324.800 245.200 322.600 L 245.200 320.400 250.000 320.400 L 254.800 320.400 254.800 318.000 L 254.800 315.600 259.200 315.600 L 263.600 315.600 263.600 313.400 L 263.600 311.200 268.200 311.200 L 272.800 311.200 272.800 309.000 L 272.800 306.800 277.000 306.800 L 281.200 306.800 281.200 309.000 L 281.200 311.200 283.400 311.200 L 285.600 311.200 285.600 313.400 L 285.600 315.600 295.200 315.600 L 304.800 315.600 304.800 313.400 L 304.800 311.200 307.000 311.200 L 309.200 311.200 309.200 299.800 L 309.200 288.400 307.000 288.400 L 304.800 288.400 304.800 286.000 L 304.800 283.600 302.600 283.600 L 300.400 283.600 300.400 281.400 L 300.400 279.200 302.600 279.200 L 304.800 279.200 304.800 277.000 L 304.800 274.800 307.000 274.800 L 309.200 274.800 309.200 270.200 L 309.200 265.600 311.400 265.600 L 313.600 265.600 313.600 261.200 L 313.600 256.800 316.000 256.800 L 318.400 256.800 318.400 252.200 L 318.400 247.600 320.600 247.600 L 322.800 247.600 322.800 241.000 L 322.800 234.400 325.000 234.400 L 327.200 234.400 327.200 225.000 L 327.200 215.600 334.000 215.600 L 340.800 215.600 340.800 213.400 L 340.800 211.200 343.200 211.200 L 345.600 211.200 345.600 209.000 L 345.600 206.800 348.000 206.800 L 350.400 206.800 350.400 204.600 L 350.400 202.400 352.600 202.400 L 354.800 202.400 354.800 199.800 L 354.800 197.200 352.600 197.200 L 350.400 197.200 350.400 195.000 L 350.400 192.800 348.000 192.800 L 345.600 192.800 345.600 190.600 L 345.600 188.400 343.200 188.400 L 340.800 188.400 340.800 186.000 L 340.800 183.600 334.000 183.600 L 327.200 183.600 327.200 172.200 L 327.200 160.800 325.000 160.800 L 322.800 160.800 322.800 154.000 L 322.800 147.200 320.600 147.200 L 318.400 147.200 318.400 145.000 L 318.400 142.800 316.000 142.800 L 313.600 142.800 313.600 138.200 L 313.600 133.600 311.400 133.600 L 309.200 133.600 309.200 129.200 L 309.200 124.800 307.000 124.800 L 304.800 124.800 304.800 122.600 L 304.800 120.400 302.600 120.400 L 300.400 120.400 300.400 118.000 L 300.400 115.600 302.600 115.600 L 304.800 115.600 304.800 113.400 L 304.800 111.200 307.000 111.200 L 309.200 111.200 309.200 99.800 L 309.200 88.400 307.000 88.400 L 304.800 88.400 304.800 86.000 L 304.800 83.600 295.200 83.600 L 285.600 83.600 285.600 86.000 L 285.600 88.400 283.400 88.400 L 281.200 88.400 281.200 90.600 L 281.200 92.800 277.000 92.800 L 272.800 92.800 272.800 90.600 L 272.800 88.400 270.600 88.400 L 268.400 88.400 268.400 86.000 L 268.400 83.600 263.800 83.600 L 259.200 83.600 259.200 81.400 L 259.200 79.200 254.800 79.200 L 250.400 79.200 250.400 77.000 L 250.400 74.800 243.400 74.800 L 236.400 74.800 236.400 72.600 L 236.400 70.400 229.600 70.400 L 222.800 70.400 222.800 68.000 L 222.800 65.600 218.200 65.600 L 213.600 65.600 213.600 61.000 L 213.600 56.400 211.400 56.400 L 209.200 56.400 209.200 54.000 L 209.200 51.600 207.000 51.600 L 204.800 51.600 204.800 49.400 L 204.800 47.200 202.600 47.200 L 200.400 47.200 200.400 45.000 L 200.400 42.800 197.600 42.800 L 194.800 42.800 194.800 45.000 M200.000 49.800 L 200.000 52.000 202.200 52.000 L 204.400 52.000 204.400 54.200 L 204.400 56.400 206.800 56.400 L 209.200 56.400 209.200 63.400 L 209.200 70.400 215.800 70.400 L 222.400 70.400 222.400 72.600 L 222.400 74.800 229.180 74.800 L 235.960 74.800 236.080 77.100 L 236.200 79.400 243.100 79.509 L 250.000 79.619 250.000 81.809 L 250.000 84.000 254.600 84.000 L 259.200 84.000 259.200 86.200 L 259.200 88.400 263.600 88.400 L 268.000 88.400 268.000 90.600 L 268.000 92.800 270.180 92.800 L 272.360 92.800 272.480 95.100 L 272.600 97.400 277.000 97.400 L 281.400 97.400 281.520 95.100 L 281.640 92.800 283.820 92.800 L 286.000 92.800 286.000 90.600 L 286.000 88.400 295.200 88.400 L 304.400 88.400 304.400 99.800 L 304.400 111.200 302.200 111.200 L 300.000 111.200 300.000 113.400 L 300.000 115.600 297.600 115.600 L 295.200 115.600 295.200 118.000 L 295.200 120.400 297.600 120.400 L 300.000 120.400 300.000 122.600 L 300.000 124.800 302.200 124.800 L 304.400 124.800 304.400 129.400 L 304.400 134.000 306.800 134.000 L 309.200 134.000 309.200 138.379 L 309.200 142.758 311.300 142.879 L 313.400 143.000 313.520 145.300 L 313.640 147.600 315.820 147.600 L 318.000 147.600 318.000 154.200 L 318.000 160.800 320.200 160.800 L 322.400 160.800 322.400 172.400 L 322.400 184.000 324.800 184.000 L 327.200 184.000 327.200 186.200 L 327.200 188.400 333.800 188.400 L 340.400 188.400 340.400 190.581 L 340.400 192.762 342.900 192.881 L 345.400 193.000 345.520 195.300 L 345.640 197.600 347.820 197.600 L 350.000 197.600 350.000 199.800 L 350.000 202.000 347.800 202.000 L 345.600 202.000 345.600 204.181 L 345.600 206.362 343.100 206.481 L 340.600 206.600 340.480 208.900 L 340.360 211.200 333.780 211.200 L 327.200 211.200 327.200 213.400 L 327.200 215.600 324.800 215.600 L 322.400 215.600 322.400 224.800 L 322.400 234.000 320.200 234.000 L 318.000 234.000 318.000 240.800 L 318.000 247.600 315.800 247.600 L 313.600 247.600 313.600 252.000 L 313.600 256.400 311.400 256.400 L 309.200 256.400 309.200 261.000 L 309.200 265.600 306.800 265.600 L 304.400 265.600 304.400 270.000 L 304.400 274.400 302.200 274.400 L 300.000 274.400 300.000 276.800 L 300.000 279.200 297.600 279.200 L 295.200 279.200 295.200 281.600 L 295.200 284.000 297.600 284.000 L 300.000 284.000 300.000 286.200 L 300.000 288.400 302.200 288.400 L 304.400 288.400 304.400 299.800 L 304.400 311.200 295.200 311.200 L 286.000 311.200 286.000 308.800 L 286.000 306.400 283.800 306.400 L 281.600 306.400 281.600 302.000 L 281.600 297.600 279.400 297.600 L 277.200 297.600 277.200 299.800 L 277.200 302.000 274.800 302.000 L 272.400 302.000 272.400 304.200 L 272.400 306.400 268.000 306.400 L 263.600 306.400 263.600 308.800 L 263.600 311.200 259.000 311.200 L 254.400 311.200 254.400 313.400 L 254.400 315.600 249.800 315.600 L 245.200 315.600 245.200 317.800 L 245.200 320.000 238.400 320.000 L 231.600 320.000 231.600 322.200 L 231.600 324.400 220.407 324.400 L 209.215 324.400 209.107 333.700 L 209.000 343.000 206.700 343.120 L 204.400 343.240 204.400 345.420 L 204.400 347.600 202.200 347.600 L 200.000 347.600 200.000 349.800 L 200.000 352.000 197.400 352.000 L 194.800 352.000 194.800 349.800 L 194.800 347.600 192.600 347.600 L 190.400 347.600 190.400 345.400 L 190.400 343.200 188.200 343.200 L 186.000 343.200 186.000 336.200 L 186.000 329.200 183.820 329.200 L 181.640 329.200 181.520 326.900 L 181.400 324.600 172.500 324.492 L 163.600 324.385 163.600 322.192 L 163.600 320.000 156.600 320.000 L 149.600 320.000 149.600 317.800 L 149.600 315.600 145.000 315.600 L 140.400 315.600 140.400 313.400 L 140.400 311.200 136.020 311.200 L 131.640 311.200 131.520 308.900 L 131.400 306.600 126.900 306.487 L 122.400 306.374 122.400 304.187 L 122.400 302.000 120.200 302.000 L 118.000 302.000 118.000 299.800 L 118.000 297.600 115.800 297.600 L 113.600 297.600 113.600 299.800 L 113.600 302.000 111.413 302.000 L 109.226 302.000 109.113 306.500 L 109.000 311.000 104.320 311.113 L 99.641 311.225 99.520 308.913 L 99.400 306.600 94.900 306.487 L 90.400 306.374 90.400 297.387 L 90.400 288.400 92.600 288.400 L 94.800 288.400 94.800 286.220 L 94.800 284.040 97.100 283.920 L 99.400 283.800 99.519 281.521 L 99.639 279.241 97.319 279.121 L 95.000 279.000 94.880 276.700 L 94.760 274.400 92.580 274.400 L 90.400 274.400 90.400 270.000 L 90.400 265.600 88.213 265.600 L 86.026 265.600 85.913 261.100 L 85.800 256.600 83.720 256.480 L 81.640 256.360 81.520 254.280 L 81.400 252.200 79.100 252.080 L 76.800 251.960 76.800 245.180 L 76.800 238.400 74.600 238.400 L 72.400 238.400 72.400 229.200 L 72.400 220.000 70.200 220.000 L 68.000 220.000 68.000 215.600 L 68.000 211.200 61.020 211.200 L 54.040 211.200 53.920 208.900 L 53.800 206.600 51.720 206.480 L 49.640 206.360 49.520 204.280 L 49.400 202.200 47.100 202.080 L 44.800 201.960 44.800 199.800 L 44.800 197.640 47.100 197.520 L 49.400 197.400 49.520 195.100 L 49.640 192.800 51.820 192.800 L 54.000 192.800 54.000 190.600 L 54.000 188.400 61.000 188.400 L 68.000 188.400 68.000 184.000 L 68.000 179.600 70.200 179.600 L 72.400 179.600 72.400 170.200 L 72.400 160.800 74.600 160.800 L 76.800 160.800 76.800 154.220 L 76.800 147.640 79.100 147.520 L 81.400 147.400 81.513 142.900 L 81.626 138.400 83.813 138.400 L 86.000 138.400 86.000 134.000 L 86.000 129.600 88.200 129.600 L 90.400 129.600 90.400 127.200 L 90.400 124.800 92.600 124.800 L 94.800 124.800 94.800 122.600 L 94.800 120.400 97.200 120.400 L 99.600 120.400 99.600 118.000 L 99.600 115.600 97.200 115.600 L 94.800 115.600 94.800 113.400 L 94.800 111.200 92.600 111.200 L 90.400 111.200 90.400 99.800 L 90.400 88.400 99.800 88.400 L 109.200 88.400 109.200 90.600 L 109.200 92.800 111.400 92.800 L 113.600 92.800 113.600 97.400 L 113.600 102.000 115.800 102.000 L 118.000 102.000 118.000 99.800 L 118.000 97.600 120.200 97.600 L 122.400 97.600 122.400 95.200 L 122.400 92.800 124.600 92.800 L 126.800 92.800 126.800 90.600 L 126.800 88.400 131.400 88.400 L 136.000 88.400 136.000 86.200 L 136.000 84.000 140.400 84.000 L 144.800 84.000 144.800 81.800 L 144.800 79.600 151.780 79.600 L 158.760 79.600 158.880 77.300 L 159.000 75.000 165.700 74.890 L 172.400 74.781 172.400 72.590 L 172.400 70.400 179.200 70.400 L 186.000 70.400 186.000 63.400 L 186.000 56.400 188.200 56.400 L 190.400 56.400 190.400 54.200 L 190.400 52.000 192.600 52.000 L 194.800 52.000 194.800 49.800 L 194.800 47.600 197.400 47.600 L 200.000 47.600 200.000 49.800 M163.600 95.400 L 163.600 97.600 159.000 97.600 L 154.400 97.600 154.400 99.800 L 154.400 102.000 149.800 102.000 L 145.200 102.000 145.200 104.187 L 145.200 106.374 140.700 106.487 L 136.200 106.600 136.080 108.900 L 135.960 111.200 133.780 111.200 L 131.600 111.200 131.600 118.000 L 131.600 124.800 133.780 124.800 L 135.960 124.800 136.080 127.100 L 136.200 129.400 138.280 129.520 L 140.360 129.640 140.480 131.720 L 140.600 133.800 142.900 133.920 L 145.200 134.040 145.200 136.220 L 145.200 138.400 147.400 138.400 L 149.600 138.400 149.600 140.600 L 149.600 142.800 151.980 142.800 L 154.360 142.800 154.480 145.100 L 154.600 147.400 156.900 147.520 L 159.200 147.640 159.200 152.020 L 159.200 156.400 161.400 156.400 L 163.600 156.400 163.600 160.800 L 163.600 165.200 165.800 165.200 L 168.000 165.200 168.000 158.600 L 168.000 152.000 170.200 152.000 L 172.400 152.000 172.400 149.600 L 172.400 147.200 174.600 147.200 L 176.800 147.200 176.800 145.000 L 176.800 142.800 179.000 142.800 L 181.200 142.800 181.200 140.600 L 181.200 138.400 183.600 138.400 L 186.000 138.400 186.000 136.200 L 186.000 134.000 188.200 134.000 L 190.400 134.000 190.400 131.600 L 190.400 129.200 195.200 129.200 L 200.000 129.200 200.000 127.213 L 200.000 125.225 195.300 125.113 L 190.600 125.000 190.495 109.100 L 190.391 93.200 176.995 93.200 L 163.600 93.200 163.600 95.400 M204.400 106.800 L 204.400 120.400 202.200 120.400 L 200.000 120.400 200.000 122.600 L 200.000 124.800 204.400 124.800 L 208.800 124.800 208.800 122.600 L 208.800 120.400 211.200 120.400 L 213.600 120.400 213.600 122.800 L 213.600 125.200 211.400 125.200 L 209.200 125.200 209.200 127.400 L 209.200 129.600 207.000 129.600 L 204.800 129.600 204.800 131.780 L 204.800 133.960 202.500 134.080 L 200.200 134.200 200.079 136.300 L 199.958 138.400 202.379 138.400 L 204.800 138.400 204.800 140.600 L 204.800 142.800 207.000 142.800 L 209.200 142.800 209.200 145.000 L 209.200 147.200 211.400 147.200 L 213.600 147.200 213.600 149.600 L 213.600 152.000 215.800 152.000 L 218.000 152.000 218.000 154.200 L 218.000 156.400 220.400 156.400 L 222.800 156.400 222.800 158.600 L 222.800 160.800 224.779 160.800 L 226.758 160.800 226.879 158.700 L 227.000 156.600 229.300 156.480 L 231.600 156.360 231.600 154.180 L 231.600 152.000 233.800 152.000 L 236.000 152.000 236.000 149.800 L 236.000 147.600 238.200 147.600 L 240.400 147.600 240.400 145.200 L 240.400 142.800 242.600 142.800 L 244.800 142.800 244.800 140.600 L 244.800 138.400 247.400 138.400 L 250.000 138.400 250.000 136.200 L 250.000 134.000 252.200 134.000 L 254.400 134.000 254.400 129.400 L 254.400 124.800 256.600 124.800 L 258.800 124.800 258.800 122.600 L 258.800 120.400 261.200 120.400 L 263.600 120.400 263.600 115.800 L 263.600 111.200 259.000 111.200 L 254.400 111.200 254.400 108.800 L 254.400 106.400 252.200 106.400 L 250.000 106.400 250.000 104.200 L 250.000 102.000 245.200 102.000 L 240.400 102.000 240.400 99.800 L 240.400 97.600 236.000 97.600 L 231.600 97.600 231.600 95.400 L 231.600 93.200 218.000 93.200 L 204.400 93.200 204.400 106.800 M185.600 115.600 L 185.600 133.600 183.400 133.600 L 181.200 133.600 181.200 136.000 L 181.200 138.400 179.000 138.400 L 176.800 138.400 176.800 140.600 L 176.800 142.800 174.600 142.800 L 172.400 142.800 172.400 145.000 L 172.400 147.200 170.000 147.200 L 167.600 147.200 167.600 149.400 L 167.600 151.600 165.600 151.600 L 163.600 151.600 163.600 149.400 L 163.600 147.200 161.400 147.200 L 159.200 147.200 159.200 145.000 L 159.200 142.800 157.000 142.800 L 154.800 142.800 154.800 140.600 L 154.800 138.400 152.200 138.400 L 149.600 138.400 149.600 136.000 L 149.600 133.600 147.400 133.600 L 145.200 133.600 145.200 131.400 L 145.200 129.200 143.000 129.200 L 140.800 129.200 140.800 127.000 L 140.800 124.800 138.600 124.800 L 136.400 124.800 136.400 118.000 L 136.400 111.200 140.800 111.200 L 145.200 111.200 145.200 109.000 L 145.200 106.800 150.000 106.800 L 154.800 106.800 154.800 104.600 L 154.800 102.400 159.200 102.400 L 163.600 102.400 163.600 100.000 L 163.600 97.600 174.600 97.600 L 185.600 97.600 185.600 115.600 M231.200 100.000 L 231.200 102.400 235.800 102.400 L 240.400 102.400 240.400 104.600 L 240.400 106.800 245.000 106.800 L 249.600 106.800 249.600 109.000 L 249.600 111.200 252.000 111.200 L 254.400 111.200 254.400 113.400 L 254.400 115.600 256.600 115.600 L 258.800 115.600 258.800 118.000 L 258.800 120.400 256.600 120.400 L 254.400 120.400 254.400 122.600 L 254.400 124.800 252.000 124.800 L 249.600 124.800 249.600 129.200 L 249.600 133.600 247.200 133.600 L 244.800 133.600 244.800 136.000 L 244.800 138.400 242.600 138.400 L 240.400 138.400 240.400 140.600 L 240.400 142.800 238.000 142.800 L 235.600 142.800 235.600 145.000 L 235.600 147.200 233.400 147.200 L 231.200 147.200 231.200 149.400 L 231.200 151.600 227.000 151.600 L 222.800 151.600 222.800 149.400 L 222.800 147.200 218.200 147.200 L 213.600 147.200 213.600 145.000 L 213.600 142.800 211.400 142.800 L 209.200 142.800 209.200 136.200 L 209.200 129.600 211.400 129.600 L 213.600 129.600 213.600 127.400 L 213.600 125.200 216.000 125.200 L 218.400 125.200 218.400 122.800 L 218.400 120.400 216.000 120.400 L 213.600 120.400 213.600 117.800 L 213.600 115.200 211.400 115.200 L 209.200 115.200 209.200 106.400 L 209.200 97.600 220.200 97.600 L 231.200 97.600 231.200 100.000 M113.600 131.800 L 113.600 134.000 111.400 134.000 L 109.200 134.000 109.200 136.180 L 109.200 138.360 106.900 138.480 L 104.600 138.600 104.487 143.100 L 104.374 147.600 101.987 147.600 L 99.600 147.600 99.600 152.000 L 99.600 156.400 97.400 156.400 L 95.200 156.400 95.200 161.000 L 95.200 165.600 92.800 165.600 L 90.400 165.600 90.400 179.200 L 90.400 192.800 120.000 192.800 L 149.600 192.800 149.600 183.800 L 149.600 174.800 152.000 174.800 L 154.400 174.800 154.400 172.400 L 154.400 170.000 156.800 170.000 L 159.200 170.000 159.200 172.400 L 159.200 174.800 161.200 174.800 L 163.200 174.800 163.200 170.200 L 163.200 165.600 158.800 165.600 L 154.400 165.600 154.400 163.400 L 154.400 161.200 152.020 161.200 L 149.640 161.200 149.520 158.900 L 149.400 156.600 147.100 156.480 L 144.800 156.360 144.800 154.180 L 144.800 152.000 142.600 152.000 L 140.400 152.000 140.400 149.800 L 140.400 147.600 136.000 147.600 L 131.600 147.600 131.600 145.420 L 131.600 143.240 129.300 143.120 L 127.000 143.000 126.880 140.700 L 126.760 138.400 124.580 138.400 L 122.400 138.400 122.400 136.200 L 122.400 134.000 120.200 134.000 L 118.000 134.000 118.000 131.800 L 118.000 129.600 115.800 129.600 L 113.600 129.600 113.600 131.800 M277.200 131.800 L 277.200 134.000 274.800 134.000 L 272.400 134.000 272.400 136.200 L 272.400 138.400 268.000 138.400 L 263.600 138.400 263.600 140.800 L 263.600 143.200 261.400 143.200 L 259.200 143.200 259.200 145.400 L 259.200 147.600 256.800 147.600 L 254.400 147.600 254.400 149.800 L 254.400 152.000 252.200 152.000 L 250.000 152.000 250.000 154.200 L 250.000 156.400 247.620 156.400 L 245.240 156.400 245.120 158.700 L 245.000 161.000 242.700 161.120 L 240.400 161.240 240.400 163.420 L 240.400 165.600 238.200 165.600 L 236.000 165.600 236.000 167.800 L 236.000 170.000 233.800 170.000 L 231.600 170.000 231.600 181.400 L 231.600 192.800 233.800 192.800 L 236.000 192.800 236.000 181.400 L 236.000 170.000 238.200 170.000 L 240.400 170.000 240.400 172.380 L 240.400 174.760 242.700 174.880 L 245.000 175.000 245.110 181.700 L 245.219 188.400 247.610 188.400 L 250.000 188.400 250.000 190.600 L 250.000 192.800 277.200 192.800 L 304.400 192.800 304.400 181.400 L 304.400 170.000 302.200 170.000 L 300.000 170.000 300.000 165.619 L 300.000 161.238 297.500 161.119 L 295.000 161.000 294.890 154.300 L 294.781 147.600 292.590 147.600 L 290.400 147.600 290.400 145.400 L 290.400 143.200 288.200 143.200 L 286.000 143.200 286.000 138.600 L 286.000 134.000 283.800 134.000 L 281.600 134.000 281.600 131.800 L 281.600 129.600 279.400 129.600 L 277.200 129.600 277.200 131.800 M117.600 136.600 L 117.600 138.800 120.000 138.800 L 122.400 138.800 122.400 141.000 L 122.400 143.200 124.600 143.200 L 126.800 143.200 126.800 145.400 L 126.800 147.600 129.000 147.600 L 131.200 147.600 131.200 150.000 L 131.200 152.400 135.800 152.400 L 140.400 152.400 140.400 154.600 L 140.400 156.800 142.600 156.800 L 144.800 156.800 144.800 159.000 L 144.800 161.200 147.000 161.200 L 149.200 161.200 149.200 163.400 L 149.200 165.600 151.800 165.600 L 154.400 165.600 154.400 167.600 L 154.400 169.600 151.800 169.600 L 149.200 169.600 149.200 172.200 L 149.200 174.800 147.000 174.800 L 144.800 174.800 144.800 181.600 L 144.800 188.400 120.000 188.400 L 95.200 188.400 95.200 177.000 L 95.200 165.600 97.400 165.600 L 99.600 165.600 99.600 161.200 L 99.600 156.800 102.200 156.800 L 104.800 156.800 104.800 152.200 L 104.800 147.600 107.000 147.600 L 109.200 147.600 109.200 143.200 L 109.200 138.800 111.400 138.800 L 113.600 138.800 113.600 136.600 L 113.600 134.400 115.600 134.400 L 117.600 134.400 117.600 136.600 M281.200 138.800 L 281.200 143.200 283.400 143.200 L 285.600 143.200 285.600 145.400 L 285.600 147.600 288.000 147.600 L 290.400 147.600 290.400 154.400 L 290.400 161.200 292.600 161.200 L 294.800 161.200 294.800 165.800 L 294.800 170.400 297.200 170.400 L 299.600 170.400 299.600 179.400 L 299.600 188.400 275.000 188.400 L 250.400 188.400 250.400 181.600 L 250.400 174.800 247.800 174.800 L 245.200 174.800 245.200 172.200 L 245.200 169.600 243.000 169.600 L 240.800 169.600 240.800 167.600 L 240.800 165.600 243.000 165.600 L 245.200 165.600 245.200 163.400 L 245.200 161.200 247.800 161.200 L 250.400 161.200 250.400 159.000 L 250.400 156.800 252.600 156.800 L 254.800 156.800 254.800 154.600 L 254.800 152.400 257.000 152.400 L 259.200 152.400 259.200 150.000 L 259.200 147.600 261.400 147.600 L 263.600 147.600 263.600 145.400 L 263.600 143.200 268.200 143.200 L 272.800 143.200 272.800 141.000 L 272.800 138.800 275.000 138.800 L 277.200 138.800 277.200 136.600 L 277.200 134.400 279.200 134.400 L 281.200 134.400 281.200 138.800 M195.200 143.200 L 195.200 147.600 197.600 147.600 L 200.000 147.600 200.000 149.800 L 200.000 152.000 202.200 152.000 L 204.400 152.000 204.400 147.600 L 204.400 143.200 202.200 143.200 L 200.000 143.200 200.000 141.000 L 200.000 138.800 197.600 138.800 L 195.200 138.800 195.200 143.200 M190.800 152.000 L 190.800 156.400 192.800 156.400 L 194.800 156.400 194.800 152.000 L 194.800 147.600 192.800 147.600 L 190.800 147.600 190.800 152.000 M204.667 152.267 C 204.520 152.413,204.400 157.543,204.400 163.667 L 204.400 174.800 206.600 174.800 L 208.800 174.800 208.800 163.400 L 208.800 152.000 206.867 152.000 C 205.803 152.000,204.813 152.120,204.667 152.267 M186.086 161.100 L 186.200 165.400 188.300 165.521 L 190.400 165.642 190.400 161.221 L 190.400 156.800 188.186 156.800 L 185.973 156.800 186.086 161.100 M227.200 165.621 L 227.200 170.042 229.300 169.921 L 231.400 169.800 231.514 165.500 L 231.627 161.200 229.414 161.200 L 227.200 161.200 227.200 165.621 M181.600 172.600 L 181.600 179.600 179.400 179.600 L 177.200 179.600 177.200 193.000 L 177.200 206.400 179.400 206.400 L 181.600 206.400 181.600 227.000 L 181.600 247.600 179.200 247.600 L 176.800 247.600 176.800 245.400 L 176.800 243.200 174.600 243.200 L 172.400 243.200 172.400 241.000 L 172.400 238.800 170.200 238.800 L 168.000 238.800 168.000 241.000 L 168.000 243.200 165.800 243.200 L 163.600 243.200 163.600 245.400 L 163.600 247.600 161.400 247.600 L 159.200 247.600 159.200 249.800 L 159.200 252.000 156.800 252.000 L 154.400 252.000 154.400 254.200 L 154.400 256.400 152.000 256.400 L 149.600 256.400 149.600 258.800 L 149.600 261.200 147.400 261.200 L 145.200 261.200 145.200 263.400 L 145.200 265.600 142.800 265.600 L 140.400 265.600 140.400 267.800 L 140.400 270.000 138.200 270.000 L 136.000 270.000 136.000 272.200 L 136.000 274.400 133.800 274.400 L 131.600 274.400 131.600 281.400 L 131.600 288.400 136.000 288.400 L 140.400 288.400 140.400 290.580 L 140.400 292.760 142.700 292.880 L 145.000 293.000 145.120 295.300 L 145.240 297.600 152.220 297.600 L 159.200 297.600 159.200 299.800 L 159.200 302.000 163.600 302.000 L 168.000 302.000 168.000 304.200 L 168.000 306.400 179.195 306.400 L 190.389 306.400 190.495 292.700 L 190.600 279.000 192.700 278.879 L 194.800 278.758 194.800 276.779 L 194.800 274.800 190.400 274.800 L 186.000 274.800 186.000 277.000 L 186.000 279.200 183.600 279.200 L 181.200 279.200 181.200 276.800 L 181.200 274.400 183.600 274.400 L 186.000 274.400 186.000 272.200 L 186.000 270.000 188.200 270.000 L 190.400 270.000 190.400 267.600 L 190.400 265.200 192.600 265.200 L 194.800 265.200 194.800 263.221 L 194.800 261.242 192.700 261.121 L 190.600 261.000 190.490 254.300 L 190.381 247.600 188.190 247.600 L 186.000 247.600 186.000 229.200 L 186.000 210.800 188.200 210.800 L 190.400 210.800 190.400 208.800 L 190.400 206.800 188.200 206.800 L 186.000 206.800 186.000 204.400 L 186.000 202.000 183.580 202.000 L 181.160 202.000 181.280 199.700 L 181.400 197.400 183.700 197.280 L 186.000 197.160 186.000 195.180 L 186.000 193.200 183.800 193.200 L 181.600 193.200 181.600 186.400 L 181.600 179.600 183.800 179.600 L 186.000 179.600 186.000 172.600 L 186.000 165.600 183.800 165.600 L 181.600 165.600 181.600 172.600 M154.400 190.800 L 154.400 206.400 156.600 206.400 L 158.800 206.400 158.800 190.800 L 158.800 175.200 156.600 175.200 L 154.400 175.200 154.400 190.800 M209.200 181.800 L 209.200 188.400 207.000 188.400 L 204.800 188.400 204.800 190.600 L 204.800 192.800 207.000 192.800 L 209.200 192.800 209.200 195.000 L 209.200 197.200 211.400 197.200 L 213.600 197.200 213.600 199.600 L 213.600 202.000 211.400 202.000 L 209.200 202.000 209.200 204.200 L 209.200 206.400 211.400 206.400 L 213.600 206.400 213.600 213.221 L 213.600 220.042 215.700 219.921 L 217.800 219.800 217.905 206.520 L 218.011 193.240 215.705 193.120 L 213.400 193.000 213.292 184.100 L 213.185 175.200 211.192 175.200 L 209.200 175.200 209.200 181.800 M195.200 181.800 L 195.200 184.000 197.600 184.000 L 200.000 184.000 200.000 186.200 L 200.000 188.400 202.200 188.400 L 204.400 188.400 204.400 186.200 L 204.400 184.000 202.200 184.000 L 200.000 184.000 200.000 181.800 L 200.000 179.600 197.600 179.600 L 195.200 179.600 195.200 181.800 M190.400 186.200 L 190.400 188.400 188.200 188.400 L 186.000 188.400 186.000 190.600 L 186.000 192.800 188.200 192.800 L 190.400 192.800 190.400 190.600 L 190.400 188.400 192.600 188.400 L 194.800 188.400 194.800 186.200 L 194.800 184.000 192.600 184.000 L 190.400 184.000 190.400 186.200 M236.000 208.800 L 236.000 224.400 238.200 224.400 L 240.400 224.400 240.400 208.800 L 240.400 193.200 238.200 193.200 L 236.000 193.200 236.000 208.800 M90.582 206.903 C 90.475 207.183,90.435 212.359,90.493 218.406 L 90.600 229.400 92.900 229.520 L 95.200 229.640 95.200 234.020 L 95.200 238.400 97.400 238.400 L 99.600 238.400 99.600 245.200 L 99.600 252.000 102.000 252.000 L 104.400 252.000 104.400 254.200 L 104.400 256.400 106.800 256.400 L 109.200 256.400 109.200 261.000 L 109.200 265.600 111.400 265.600 L 113.600 265.600 113.600 267.800 L 113.600 270.000 115.800 270.000 L 118.000 270.000 118.000 267.800 L 118.000 265.600 120.200 265.600 L 122.400 265.600 122.400 263.200 L 122.400 260.800 124.600 260.800 L 126.800 260.800 126.800 258.600 L 126.800 256.400 129.200 256.400 L 131.600 256.400 131.600 254.200 L 131.600 252.000 133.800 252.000 L 136.000 252.000 136.000 249.800 L 136.000 247.600 138.200 247.600 L 140.400 247.600 140.400 245.200 L 140.400 242.800 142.600 242.800 L 144.800 242.800 144.800 240.600 L 144.800 238.400 147.200 238.400 L 149.600 238.400 149.600 236.200 L 149.600 234.000 152.000 234.000 L 154.400 234.000 154.400 229.200 L 154.400 224.400 152.008 224.400 L 149.615 224.400 149.508 215.500 L 149.400 206.600 120.088 206.497 C 96.679 206.415,90.738 206.497,90.582 206.903 M250.000 208.800 L 250.000 211.200 247.600 211.200 L 245.200 211.200 245.200 217.780 L 245.200 224.360 242.900 224.480 L 240.600 224.600 240.481 227.100 L 240.362 229.600 238.181 229.600 L 236.000 229.600 236.000 227.200 L 236.000 224.800 233.800 224.800 L 231.600 224.800 231.600 229.400 L 231.600 234.000 236.000 234.000 L 240.400 234.000 240.400 236.180 L 240.400 238.360 242.700 238.480 L 245.000 238.600 245.121 240.700 L 245.242 242.800 247.621 242.800 L 250.000 242.800 250.000 245.200 L 250.000 247.600 252.200 247.600 L 254.400 247.600 254.400 249.800 L 254.400 252.000 259.000 252.000 L 263.600 252.000 263.600 254.200 L 263.600 256.400 265.800 256.400 L 268.000 256.400 268.000 258.600 L 268.000 260.800 270.180 260.800 L 272.360 260.800 272.480 263.100 L 272.600 265.400 274.900 265.520 L 277.200 265.640 277.200 267.820 L 277.200 270.000 279.400 270.000 L 281.600 270.000 281.600 267.800 L 281.600 265.600 283.800 265.600 L 286.000 265.600 286.000 261.000 L 286.000 256.400 288.200 256.400 L 290.400 256.400 290.400 252.000 L 290.400 247.600 292.600 247.600 L 294.800 247.600 294.800 243.000 L 294.800 238.400 297.400 238.400 L 300.000 238.400 300.000 234.000 L 300.000 229.600 302.200 229.600 L 304.400 229.600 304.400 218.000 L 304.400 206.400 277.200 206.400 L 250.000 206.400 250.000 208.800 M159.200 218.200 L 159.200 229.600 161.200 229.600 L 163.200 229.600 163.200 218.200 L 163.200 206.800 161.200 206.800 L 159.200 206.800 159.200 218.200 M204.800 208.800 L 204.800 210.800 206.800 210.800 L 208.800 210.800 208.800 208.800 L 208.800 206.800 206.800 206.800 L 204.800 206.800 204.800 208.800 M144.800 218.000 L 144.800 224.800 147.000 224.800 L 149.200 224.800 149.200 229.200 L 149.200 233.600 147.000 233.600 L 144.800 233.600 144.800 236.000 L 144.800 238.400 142.600 238.400 L 140.400 238.400 140.400 240.600 L 140.400 242.800 138.000 242.800 L 135.600 242.800 135.600 245.000 L 135.600 247.200 133.400 247.200 L 131.200 247.200 131.200 249.400 L 131.200 251.600 129.000 251.600 L 126.800 251.600 126.800 254.000 L 126.800 256.400 124.600 256.400 L 122.400 256.400 122.400 258.600 L 122.400 260.800 120.000 260.800 L 117.600 260.800 117.600 263.000 L 117.600 265.200 115.600 265.200 L 113.600 265.200 113.600 260.800 L 113.600 256.400 111.400 256.400 L 109.200 256.400 109.200 254.000 L 109.200 251.600 107.000 251.600 L 104.800 251.600 104.800 245.000 L 104.800 238.400 102.200 238.400 L 99.600 238.400 99.600 233.800 L 99.600 229.200 97.400 229.200 L 95.200 229.200 95.200 220.200 L 95.200 211.200 120.000 211.200 L 144.800 211.200 144.800 218.000 M190.479 213.300 L 190.600 215.400 192.700 215.521 L 194.800 215.642 194.800 213.421 L 194.800 211.200 192.579 211.200 L 190.358 211.200 190.479 213.300 M200.000 213.400 L 200.000 215.600 197.600 215.600 L 195.200 215.600 195.200 217.800 L 195.200 220.000 197.600 220.000 L 200.000 220.000 200.000 217.800 L 200.000 215.600 202.200 215.600 L 204.400 215.600 204.400 213.400 L 204.400 211.200 202.200 211.200 L 200.000 211.200 200.000 213.400 M299.600 220.200 L 299.600 229.200 297.200 229.200 L 294.800 229.200 294.800 233.800 L 294.800 238.400 292.600 238.400 L 290.400 238.400 290.400 242.800 L 290.400 247.200 288.000 247.200 L 285.600 247.200 285.600 251.800 L 285.600 256.400 283.400 256.400 L 281.200 256.400 281.200 260.800 L 281.200 265.200 279.200 265.200 L 277.200 265.200 277.200 263.000 L 277.200 260.800 275.000 260.800 L 272.800 260.800 272.800 258.600 L 272.800 256.400 270.600 256.400 L 268.400 256.400 268.400 254.000 L 268.400 251.600 266.000 251.600 L 263.600 251.600 263.600 249.400 L 263.600 247.200 259.200 247.200 L 254.800 247.200 254.800 245.000 L 254.800 242.800 252.600 242.800 L 250.400 242.800 250.400 240.600 L 250.400 238.400 247.800 238.400 L 245.200 238.400 245.200 236.000 L 245.200 233.600 243.000 233.600 L 240.800 233.600 240.800 231.600 L 240.800 229.600 243.000 229.600 L 245.200 229.600 245.200 227.200 L 245.200 224.800 247.800 224.800 L 250.400 224.800 250.400 218.000 L 250.400 211.200 275.000 211.200 L 299.600 211.200 299.600 220.200 M209.200 227.000 L 209.200 234.000 211.200 234.000 L 213.200 234.000 213.200 227.000 L 213.200 220.000 211.200 220.000 L 209.200 220.000 209.200 227.000 M163.600 234.000 L 163.600 238.400 165.800 238.400 L 168.000 238.400 168.000 234.000 L 168.000 229.600 165.800 229.600 L 163.600 229.600 163.600 234.000 M204.400 238.400 L 204.400 242.800 206.600 242.800 L 208.800 242.800 208.800 238.400 L 208.800 234.000 206.600 234.000 L 204.400 234.000 204.400 238.400 M227.200 240.779 L 227.200 247.600 225.000 247.600 L 222.800 247.600 222.800 249.780 L 222.800 251.960 220.500 252.080 L 218.200 252.200 218.080 254.500 L 217.960 256.800 215.780 256.800 L 213.600 256.800 213.600 259.000 L 213.600 261.200 211.400 261.200 L 209.200 261.200 209.200 263.400 L 209.200 265.600 207.000 265.600 L 204.800 265.600 204.800 267.800 L 204.800 270.000 200.000 270.000 L 195.200 270.000 195.200 272.200 L 195.200 274.400 199.800 274.400 L 204.400 274.400 204.400 290.400 L 204.400 306.400 213.400 306.400 L 222.400 306.400 222.400 304.200 L 222.400 302.000 229.200 302.000 L 236.000 302.000 236.000 299.800 L 236.000 297.600 240.380 297.600 L 244.760 297.600 244.880 295.300 L 245.000 293.000 249.700 292.887 L 254.400 292.775 254.400 290.587 L 254.400 288.400 259.009 288.400 L 263.619 288.400 263.509 281.500 L 263.400 274.600 261.100 274.480 L 258.800 274.360 258.800 272.180 L 258.800 270.000 256.600 270.000 L 254.400 270.000 254.400 267.800 L 254.400 265.600 252.200 265.600 L 250.000 265.600 250.000 263.419 L 250.000 261.238 247.500 261.119 L 245.000 261.000 244.880 258.700 L 244.760 256.400 242.580 256.400 L 240.400 256.400 240.400 254.200 L 240.400 252.000 238.200 252.000 L 236.000 252.000 236.000 249.800 L 236.000 247.600 233.810 247.600 L 231.619 247.600 231.510 240.900 L 231.400 234.200 229.300 234.079 L 227.200 233.958 227.200 240.779 M200.000 247.600 L 200.000 252.000 197.600 252.000 L 195.200 252.000 195.200 256.400 L 195.200 260.800 197.600 260.800 L 200.000 260.800 200.000 256.400 L 200.000 252.000 202.200 252.000 L 204.400 252.000 204.400 247.600 L 204.400 243.200 202.200 243.200 L 200.000 243.200 200.000 247.600 M172.400 250.000 L 172.400 252.400 179.000 252.400 L 185.600 252.400 185.600 261.000 L 185.600 269.600 183.400 269.600 L 181.200 269.600 181.200 272.000 L 181.200 274.400 179.000 274.400 L 176.800 274.400 176.800 276.800 L 176.800 279.200 179.000 279.200 L 181.200 279.200 181.200 281.800 L 181.200 284.400 183.400 284.400 L 185.600 284.400 185.600 293.000 L 185.600 301.600 177.000 301.600 L 168.400 301.600 168.400 299.400 L 168.400 297.200 163.800 297.200 L 159.200 297.200 159.200 295.000 L 159.200 292.800 152.200 292.800 L 145.200 292.800 145.200 290.600 L 145.200 288.400 143.000 288.400 L 140.800 288.400 140.800 286.000 L 140.800 283.600 138.600 283.600 L 136.400 283.600 136.400 279.200 L 136.400 274.800 138.600 274.800 L 140.800 274.800 140.800 272.600 L 140.800 270.400 143.000 270.400 L 145.200 270.400 145.200 268.000 L 145.200 265.600 147.400 265.600 L 149.600 265.600 149.600 263.400 L 149.600 261.200 152.200 261.200 L 154.800 261.200 154.800 259.000 L 154.800 256.800 157.000 256.800 L 159.200 256.800 159.200 254.600 L 159.200 252.400 161.400 252.400 L 163.600 252.400 163.600 250.000 L 163.600 247.600 168.000 247.600 L 172.400 247.600 172.400 250.000 M231.200 250.000 L 231.200 252.400 233.400 252.400 L 235.600 252.400 235.600 254.600 L 235.600 256.800 238.000 256.800 L 240.400 256.800 240.400 259.000 L 240.400 261.200 242.600 261.200 L 244.800 261.200 244.800 263.400 L 244.800 265.600 247.200 265.600 L 249.600 265.600 249.600 268.000 L 249.600 270.400 252.000 270.400 L 254.400 270.400 254.400 272.600 L 254.400 274.800 256.600 274.800 L 258.800 274.800 258.800 279.200 L 258.800 283.600 256.600 283.600 L 254.400 283.600 254.400 286.000 L 254.400 288.400 249.600 288.400 L 244.800 288.400 244.800 290.600 L 244.800 292.800 240.200 292.800 L 235.600 292.800 235.600 295.000 L 235.600 297.200 229.000 297.200 L 222.400 297.200 222.400 299.400 L 222.400 301.600 215.800 301.600 L 209.200 301.600 209.200 283.600 L 209.200 265.600 211.400 265.600 L 213.600 265.600 213.600 263.400 L 213.600 261.200 216.000 261.200 L 218.400 261.200 218.400 259.000 L 218.400 256.800 220.600 256.800 L 222.800 256.800 222.800 254.600 L 222.800 252.400 225.000 252.400 L 227.200 252.400 227.200 250.000 L 227.200 247.600 229.200 247.600 L 231.200 247.600 231.200 250.000 " stroke="none" fill="#fcfcfc" fill-rule="evenodd"></path><path id="path1" d="M194.872 49.700 L 194.800 52.000 192.600 52.000 L 190.400 52.000 190.400 54.200 L 190.400 56.400 188.200 56.400 L 186.000 56.400 186.000 63.400 L 186.000 70.400 179.200 70.400 L 172.400 70.400 172.400 72.590 L 172.400 74.781 165.700 74.890 L 159.000 75.000 158.970 77.200 L 158.940 79.400 159.090 77.300 L 159.240 75.200 166.020 75.200 L 172.800 75.200 172.800 73.010 L 172.800 70.819 179.500 70.710 L 186.200 70.600 186.309 63.700 L 186.419 56.800 188.609 56.800 L 190.800 56.800 190.800 54.600 L 190.800 52.400 192.813 52.400 C 195.137 52.400,195.315 52.162,195.096 49.349 L 194.944 47.400 194.872 49.700 M199.767 49.898 L 199.800 52.200 202.102 52.233 L 204.404 52.266 202.221 52.113 L 200.039 51.961 199.887 49.779 L 199.734 47.596 199.767 49.898 M206.598 56.687 L 208.800 56.840 208.800 63.820 L 208.800 70.800 215.700 70.710 L 222.600 70.621 215.909 70.501 L 209.219 70.381 209.109 63.490 L 209.000 56.600 206.698 56.567 L 204.396 56.534 206.598 56.687 M228.880 75.099 L 235.561 75.219 235.705 77.510 L 235.849 79.800 235.924 77.300 L 236.000 74.800 229.100 74.890 L 222.200 74.979 228.880 75.099 M144.872 81.700 L 144.800 84.000 140.400 84.000 L 136.000 84.000 136.000 86.187 L 136.000 88.374 131.500 88.487 L 127.000 88.600 126.880 90.680 L 126.760 92.760 124.680 92.880 L 122.600 93.000 122.570 95.200 L 122.540 97.400 122.690 95.300 L 122.840 93.200 125.020 93.200 L 127.200 93.200 127.200 91.013 L 127.200 88.826 131.700 88.713 L 136.200 88.600 136.321 86.500 L 136.442 84.400 140.633 84.400 C 145.366 84.400,145.335 84.421,145.096 81.349 L 144.944 79.400 144.872 81.700 M249.767 81.898 L 249.800 84.200 254.300 84.313 L 258.800 84.426 258.800 86.613 L 258.800 88.800 263.179 88.800 L 267.558 88.800 267.679 90.900 L 267.800 93.000 270.000 93.030 L 272.200 93.060 270.100 92.910 L 268.000 92.760 268.000 90.580 L 268.000 88.400 263.600 88.400 L 259.200 88.400 259.200 86.200 L 259.200 84.000 254.620 84.000 L 250.040 84.000 249.887 81.798 L 249.734 79.596 249.767 81.898 M90.494 99.693 L 90.600 111.000 92.680 111.120 L 94.760 111.240 94.880 113.320 L 95.000 115.400 97.400 115.436 L 99.800 115.472 97.500 115.316 L 95.200 115.160 95.200 112.980 L 95.200 110.800 93.000 110.800 L 90.800 110.800 90.800 99.800 L 90.800 88.800 99.800 88.800 L 108.800 88.800 108.800 91.000 L 108.800 93.200 110.987 93.200 L 113.174 93.200 113.287 97.700 L 113.400 102.200 115.800 102.200 L 118.200 102.200 118.233 99.898 L 118.266 97.596 118.113 99.798 L 117.960 102.000 115.793 102.000 L 113.626 102.000 113.513 97.500 L 113.400 93.000 111.320 92.880 L 109.240 92.760 109.120 90.680 L 109.000 88.600 99.694 88.493 L 90.388 88.385 90.494 99.693 M286.000 90.580 L 286.000 92.760 283.798 92.913 L 281.596 93.066 283.898 93.033 L 286.200 93.000 286.321 90.907 L 286.441 88.815 295.521 88.700 L 304.600 88.584 295.300 88.492 L 286.000 88.400 286.000 90.580 M163.200 94.987 L 163.200 97.174 158.700 97.301 L 154.200 97.429 158.900 97.514 L 163.600 97.600 163.600 95.400 L 163.600 93.200 176.995 93.200 L 190.391 93.200 190.495 109.100 L 190.600 125.000 195.300 125.113 L 200.000 125.225 199.924 122.713 L 199.849 120.200 199.704 122.500 L 199.560 124.800 195.180 124.800 L 190.800 124.800 190.800 108.800 L 190.800 92.800 177.000 92.800 L 163.200 92.800 163.200 94.987 M211.100 93.099 C 214.895 93.165,221.105 93.165,224.900 93.099 C 228.695 93.034,225.590 92.980,218.000 92.980 C 210.410 92.980,207.305 93.034,211.100 93.099 M300.000 95.200 L 300.000 97.600 297.400 97.600 L 294.800 97.600 294.800 99.800 L 294.800 102.000 292.600 102.000 L 290.400 102.000 290.400 104.200 L 290.400 106.400 288.200 106.400 L 286.000 106.400 286.000 108.600 L 286.000 110.800 283.820 110.800 L 281.640 110.800 281.520 113.100 L 281.400 115.400 279.100 115.520 L 276.800 115.640 276.800 118.020 L 276.800 120.400 274.600 120.400 L 272.400 120.400 272.400 122.600 L 272.400 124.800 270.200 124.800 L 268.000 124.800 268.000 129.400 L 268.000 134.000 265.800 134.000 L 263.600 134.000 263.600 136.180 L 263.600 138.360 261.300 138.480 L 259.000 138.600 258.880 140.680 L 258.760 142.760 256.680 142.880 L 254.600 143.000 254.480 145.300 L 254.360 147.600 252.180 147.600 L 250.000 147.600 250.000 149.800 L 250.000 152.000 247.400 152.000 L 244.800 152.000 244.800 154.200 L 244.800 156.400 242.600 156.400 L 240.400 156.400 240.400 158.600 L 240.400 160.800 238.220 160.800 L 236.040 160.800 235.920 163.100 L 235.800 165.400 233.700 165.521 L 231.600 165.642 231.600 167.821 L 231.600 170.000 233.800 170.000 L 236.000 170.000 236.000 181.400 L 236.000 192.800 238.200 192.800 L 240.400 192.800 240.400 208.600 L 240.400 224.400 238.200 224.400 L 236.000 224.400 236.000 227.000 L 236.000 229.600 238.200 229.600 L 240.400 229.600 240.400 227.000 L 240.400 224.400 242.590 224.400 L 244.781 224.400 244.890 217.700 L 245.000 211.000 247.500 210.881 L 250.000 210.762 250.000 208.581 L 250.000 206.400 277.200 206.400 L 304.400 206.400 304.400 218.000 L 304.400 229.600 302.200 229.600 L 300.000 229.600 300.000 234.000 L 300.000 238.400 297.613 238.400 L 295.226 238.400 295.113 242.900 L 295.000 247.400 292.700 247.520 L 290.400 247.640 290.400 252.020 L 290.400 256.400 288.200 256.400 L 286.000 256.400 286.000 261.000 L 286.000 265.600 283.800 265.600 L 281.600 265.600 281.600 267.820 L 281.600 270.040 279.300 269.920 L 277.000 269.800 276.879 267.700 L 276.758 265.600 274.579 265.600 L 272.400 265.600 272.400 263.421 L 272.400 261.242 270.300 261.121 L 268.200 261.000 268.080 258.700 L 267.960 256.400 265.780 256.400 L 263.600 256.400 263.600 254.200 L 263.600 252.000 259.000 252.000 L 254.400 252.000 254.400 249.800 L 254.400 247.600 252.200 247.600 L 250.000 247.600 250.000 245.419 L 250.000 243.238 247.500 243.119 L 245.000 243.000 244.880 240.700 L 244.760 238.400 242.580 238.400 L 240.400 238.400 240.400 236.200 L 240.400 234.000 236.000 234.000 L 231.600 234.000 231.600 240.800 L 231.600 247.600 233.800 247.600 L 236.000 247.600 236.000 249.800 L 236.000 252.000 238.200 252.000 L 240.400 252.000 240.400 254.180 L 240.400 256.360 242.700 256.480 L 245.000 256.600 245.120 258.681 L 245.240 260.761 247.520 260.881 L 249.800 261.000 249.920 263.300 L 250.040 265.600 252.220 265.600 L 254.400 265.600 254.400 267.780 L 254.400 269.960 256.700 270.080 L 259.000 270.200 259.121 272.300 L 259.242 274.400 261.421 274.400 L 263.600 274.400 263.600 281.400 L 263.600 288.400 259.000 288.400 L 254.400 288.400 254.400 290.800 L 254.400 293.200 249.821 293.200 L 245.242 293.200 245.121 295.300 L 245.000 297.400 240.500 297.513 L 236.000 297.626 236.000 299.813 L 236.000 302.000 229.200 302.000 L 222.400 302.000 222.400 304.200 L 222.400 306.400 213.400 306.400 L 204.400 306.400 204.400 290.400 L 204.400 274.400 199.820 274.400 L 195.240 274.400 195.120 276.700 L 195.000 279.000 192.700 279.120 L 190.400 279.240 190.400 292.820 L 190.400 306.400 179.200 306.400 L 168.000 306.400 168.000 304.213 L 168.000 302.026 163.500 301.913 L 159.000 301.800 158.879 299.709 L 158.759 297.619 151.879 297.509 L 145.000 297.400 144.880 295.320 L 144.760 293.240 142.680 293.120 L 140.600 293.000 140.480 290.700 L 140.360 288.400 135.980 288.400 L 131.600 288.400 131.600 281.400 L 131.600 274.400 133.800 274.400 L 136.000 274.400 136.000 272.200 L 136.000 270.000 138.200 270.000 L 140.400 270.000 140.400 267.800 L 140.400 265.600 142.580 265.600 L 144.760 265.600 144.880 263.300 L 145.000 261.000 147.300 260.880 L 149.600 260.760 149.600 258.580 L 149.600 256.400 152.000 256.400 L 154.400 256.400 154.400 254.200 L 154.400 252.000 156.600 252.000 L 158.800 252.000 158.800 249.800 L 158.800 247.600 161.200 247.600 L 163.600 247.600 163.600 245.200 L 163.600 242.800 165.800 242.800 L 168.000 242.800 168.000 240.600 L 168.000 238.400 165.813 238.400 L 163.626 238.400 163.499 233.900 L 163.371 229.400 163.286 233.879 L 163.200 238.358 161.100 238.479 L 159.000 238.600 158.880 240.680 L 158.760 242.760 156.680 242.880 L 154.600 243.000 154.487 247.500 L 154.374 252.000 151.987 252.000 L 149.600 252.000 149.600 254.180 L 149.600 256.360 147.300 256.480 L 145.000 256.600 144.880 258.680 L 144.760 260.760 142.680 260.880 L 140.600 261.000 140.480 263.300 L 140.360 265.600 138.180 265.600 L 136.000 265.600 136.000 267.800 L 136.000 270.000 133.800 270.000 L 131.600 270.000 131.600 272.180 L 131.600 274.360 129.300 274.480 L 127.000 274.600 126.880 276.680 L 126.760 278.760 124.680 278.880 L 122.600 279.000 122.481 281.500 L 122.362 284.000 120.181 284.000 L 118.000 284.000 118.000 286.200 L 118.000 288.400 115.800 288.400 L 113.600 288.400 113.600 290.580 L 113.600 292.760 111.300 292.880 L 109.000 293.000 108.880 295.300 L 108.760 297.600 106.580 297.600 L 104.400 297.600 104.400 299.800 L 104.400 302.000 102.036 302.000 L 99.671 302.000 99.536 304.300 C 99.461 305.565,99.454 307.545,99.521 308.700 L 99.642 310.800 104.207 310.800 L 108.773 310.800 108.886 306.500 L 109.000 302.200 111.300 302.080 L 113.600 301.960 113.600 299.780 L 113.600 297.600 115.800 297.600 L 118.000 297.600 118.000 299.800 L 118.000 302.000 120.200 302.000 L 122.400 302.000 122.400 304.200 L 122.400 306.400 127.000 306.400 L 131.600 306.400 131.600 308.600 L 131.600 310.800 136.000 310.800 L 140.400 310.800 140.400 313.200 L 140.400 315.600 145.000 315.600 L 149.600 315.600 149.600 317.800 L 149.600 320.000 156.600 320.000 L 163.600 320.000 163.600 322.200 L 163.600 324.400 172.600 324.400 L 181.600 324.400 181.600 326.579 L 181.600 328.758 183.700 328.879 L 185.800 329.000 185.909 335.900 L 186.019 342.800 188.209 342.800 L 190.400 342.800 190.400 345.200 L 190.400 347.600 192.800 347.600 L 195.200 347.600 195.200 349.800 L 195.200 352.000 197.600 352.000 L 200.000 352.000 200.000 349.800 L 200.000 347.600 202.180 347.600 L 204.360 347.600 204.480 345.300 L 204.600 343.000 206.693 342.879 L 208.785 342.759 208.893 333.679 L 209.000 324.600 220.300 324.494 L 231.600 324.388 231.600 322.194 L 231.600 320.000 238.200 320.000 L 244.800 320.000 244.800 317.800 L 244.800 315.600 249.580 315.600 L 254.360 315.600 254.480 313.300 L 254.600 311.000 259.100 310.887 L 263.600 310.774 263.600 308.587 L 263.600 306.400 268.000 306.400 L 272.400 306.400 272.400 304.200 L 272.400 302.000 274.600 302.000 L 276.800 302.000 276.800 299.800 L 276.800 297.600 279.200 297.600 L 281.600 297.600 281.600 302.000 L 281.600 306.400 283.800 306.400 L 286.000 306.400 286.000 308.600 L 286.000 310.800 295.200 310.800 L 304.400 310.800 304.400 299.600 L 304.400 288.400 302.200 288.400 L 300.000 288.400 300.000 286.219 L 300.000 284.038 297.500 283.919 L 295.000 283.800 295.000 281.400 L 295.000 279.000 297.500 278.881 L 300.000 278.762 300.000 276.581 L 300.000 274.400 302.200 274.400 L 304.400 274.400 304.400 270.000 L 304.400 265.600 306.587 265.600 L 308.774 265.600 308.887 261.100 L 309.000 256.600 311.300 256.480 L 313.600 256.360 313.600 251.980 L 313.600 247.600 315.800 247.600 L 318.000 247.600 318.000 240.800 L 318.000 234.000 320.200 234.000 L 322.400 234.000 322.400 224.800 L 322.400 215.600 324.580 215.600 L 326.760 215.600 326.880 213.300 L 327.000 211.000 333.700 210.890 L 340.400 210.781 340.400 208.590 L 340.400 206.400 343.000 206.400 L 345.600 206.400 345.600 204.200 L 345.600 202.000 347.800 202.000 L 350.000 202.000 350.000 199.800 L 350.000 197.600 347.800 197.600 L 345.600 197.600 345.600 195.419 L 345.600 193.238 343.100 193.119 L 340.600 193.000 340.480 190.700 L 340.360 188.400 333.580 188.400 L 326.800 188.400 326.800 186.200 L 326.800 184.000 324.600 184.000 L 322.400 184.000 322.400 172.621 L 322.400 161.242 320.300 161.121 L 318.200 161.000 318.090 154.300 L 317.981 147.600 315.790 147.600 L 313.600 147.600 313.600 145.420 L 313.600 143.240 311.300 143.120 L 309.000 143.000 308.887 138.500 L 308.774 134.000 306.587 134.000 L 304.400 134.000 304.400 129.621 L 304.400 125.242 302.300 125.121 L 300.200 125.000 300.080 122.700 L 299.960 120.400 297.380 120.400 L 294.800 120.400 294.800 118.000 L 294.800 115.600 297.380 115.600 L 299.960 115.600 300.080 113.300 L 300.200 111.000 302.300 110.879 L 304.400 110.758 304.400 101.779 L 304.400 92.800 302.200 92.800 L 300.000 92.800 300.000 95.200 M235.900 97.499 L 240.400 97.626 240.400 99.813 L 240.400 102.000 245.180 102.000 L 249.960 102.000 250.116 104.300 L 250.272 106.600 250.236 104.200 L 250.200 101.800 245.500 101.687 L 240.800 101.575 240.800 99.387 L 240.800 97.200 236.100 97.286 L 231.400 97.371 235.900 97.499 M144.964 102.151 C 144.847 102.454,144.820 103.579,144.904 104.651 L 145.056 106.600 145.128 104.313 L 145.200 102.025 149.900 101.899 L 154.600 101.772 149.887 101.686 C 146.195 101.619,145.129 101.719,144.964 102.151 M135.600 108.600 L 135.600 110.800 133.400 110.800 L 131.200 110.800 131.200 118.000 L 131.200 125.200 133.380 125.200 L 135.560 125.200 135.704 127.500 L 135.849 129.800 135.924 127.300 L 136.000 124.800 133.800 124.800 L 131.600 124.800 131.600 118.000 L 131.600 111.200 133.800 111.200 L 136.000 111.200 136.000 108.800 C 136.000 107.480,135.910 106.400,135.800 106.400 C 135.690 106.400,135.600 107.390,135.600 108.600 M254.567 108.698 L 254.600 111.000 259.101 111.021 L 263.601 111.041 259.220 110.908 L 254.839 110.774 254.687 108.585 L 254.534 106.396 254.567 108.698 M95.067 120.667 C 94.920 120.813,94.800 121.794,94.800 122.846 L 94.800 124.758 92.700 124.879 L 90.600 125.000 90.567 127.302 L 90.534 129.604 90.687 127.402 L 90.840 125.200 93.020 125.200 L 95.200 125.200 95.200 123.020 L 95.200 120.840 97.500 120.696 L 99.800 120.551 97.567 120.476 C 96.338 120.434,95.213 120.520,95.067 120.667 M259.067 120.667 C 258.920 120.813,258.800 121.794,258.800 122.846 L 258.800 124.758 256.700 124.879 L 254.600 125.000 254.487 129.500 L 254.374 134.000 252.187 134.000 L 250.000 134.000 250.000 136.181 L 250.000 138.362 247.500 138.481 L 245.000 138.600 244.880 140.680 L 244.760 142.760 242.680 142.880 L 240.600 143.000 240.570 145.200 L 240.540 147.400 240.690 145.300 L 240.840 143.200 243.020 143.200 L 245.200 143.200 245.200 141.019 L 245.200 138.838 247.700 138.719 L 250.200 138.600 250.320 136.520 L 250.440 134.440 252.520 134.320 L 254.600 134.200 254.713 129.700 L 254.826 125.200 257.013 125.200 L 259.200 125.200 259.200 123.020 L 259.200 120.840 261.500 120.696 L 263.800 120.551 261.567 120.476 C 260.338 120.434,259.213 120.520,259.067 120.667 M113.200 131.360 L 113.200 133.558 111.100 133.679 L 109.000 133.800 108.967 136.102 L 108.934 138.404 109.087 136.202 L 109.240 134.000 111.420 134.000 L 113.600 134.000 113.600 131.800 L 113.600 129.600 115.800 129.600 L 118.000 129.600 118.000 131.800 L 118.000 134.000 120.180 134.000 L 122.360 134.000 122.513 136.202 L 122.666 138.404 122.633 136.102 L 122.600 133.800 120.520 133.680 L 118.440 133.560 118.320 131.480 L 118.200 129.400 115.700 129.281 L 113.200 129.162 113.200 131.360 M86.084 133.880 L 86.000 138.360 83.700 138.504 L 81.400 138.649 83.713 138.724 C 86.525 138.816,86.467 138.933,86.299 133.573 L 86.169 129.400 86.084 133.880 M281.600 131.800 L 281.600 134.000 283.800 134.000 L 286.000 134.000 286.000 138.400 L 286.000 142.800 288.200 142.800 L 290.400 142.800 290.400 145.200 L 290.400 147.600 292.800 147.600 L 295.200 147.600 295.200 154.180 L 295.200 160.760 297.500 160.880 L 299.800 161.000 299.913 165.500 L 300.026 170.000 302.213 170.000 L 304.400 170.000 304.400 181.603 L 304.400 193.206 277.300 193.103 L 250.200 193.000 250.080 190.700 L 249.960 188.400 247.380 188.400 L 244.800 188.400 244.800 181.821 L 244.800 175.242 242.700 175.121 L 240.600 175.000 240.481 172.500 L 240.362 170.000 238.181 170.000 L 236.000 170.000 236.000 167.800 L 236.000 165.600 238.180 165.600 L 240.360 165.600 240.480 163.300 L 240.600 161.000 242.680 160.880 L 244.760 160.760 244.880 158.680 L 245.000 156.600 247.500 156.481 L 250.000 156.362 250.000 154.181 L 250.000 152.000 252.200 152.000 L 254.400 152.000 254.400 149.800 L 254.400 147.600 256.580 147.600 L 258.760 147.600 258.880 145.300 L 259.000 143.000 261.300 142.880 L 263.600 142.760 263.600 140.580 L 263.600 138.400 268.000 138.400 L 272.400 138.400 272.400 136.200 L 272.400 134.000 274.600 134.000 L 276.800 134.000 276.800 131.800 L 276.800 129.600 279.200 129.600 L 281.600 129.600 281.600 131.800 M142.500 134.296 L 144.800 134.440 144.800 136.620 L 144.800 138.800 147.000 138.800 L 149.200 138.800 149.200 141.000 L 149.200 143.200 151.900 143.123 L 154.600 143.046 152.100 142.904 L 149.600 142.762 149.600 140.581 L 149.600 138.400 147.400 138.400 L 145.200 138.400 145.200 136.200 L 145.200 134.000 142.700 134.076 L 140.200 134.151 142.500 134.296 M126.967 140.698 L 127.000 143.000 129.302 143.033 L 131.604 143.066 129.421 142.913 L 127.239 142.761 127.087 140.579 L 126.934 138.396 126.967 140.698 M99.286 151.900 L 99.371 156.600 99.498 152.119 L 99.626 147.638 102.113 147.496 L 104.600 147.354 101.900 147.277 L 99.200 147.200 99.286 151.900 M135.900 147.499 L 140.400 147.626 140.400 149.813 L 140.400 152.000 142.580 152.000 L 144.760 152.000 144.913 154.202 L 145.066 156.404 145.033 154.102 L 145.000 151.800 142.900 151.679 L 140.800 151.558 140.800 149.379 L 140.800 147.200 136.100 147.286 L 131.400 147.371 135.900 147.499 M76.800 154.179 L 76.800 160.758 74.700 160.879 L 72.600 161.000 72.589 170.300 L 72.577 179.600 72.696 170.400 L 72.815 161.200 75.007 161.200 L 77.200 161.200 77.200 154.400 C 77.200 150.660,77.110 147.600,77.000 147.600 C 76.890 147.600,76.800 150.561,76.800 154.179 M158.886 152.100 L 158.800 156.800 161.000 156.800 L 163.200 156.800 163.200 161.000 L 163.200 165.200 159.000 165.200 L 154.800 165.200 154.800 163.000 L 154.800 160.800 152.100 160.877 L 149.400 160.954 151.900 161.096 L 154.400 161.238 154.400 163.419 L 154.400 165.600 159.000 165.600 L 163.600 165.600 163.600 161.000 L 163.600 156.400 161.413 156.400 L 159.226 156.400 159.099 151.900 L 158.971 147.400 158.886 152.100 M194.800 152.000 L 194.800 156.400 192.600 156.400 L 190.400 156.400 190.486 161.100 L 190.571 165.800 190.699 161.300 L 190.826 156.800 193.013 156.800 L 195.200 156.800 195.200 152.200 C 195.200 149.670,195.110 147.600,195.000 147.600 C 194.890 147.600,194.800 149.580,194.800 152.000 M199.767 149.898 L 199.800 152.200 202.102 152.233 L 204.404 152.266 202.221 152.113 L 200.039 151.961 199.887 149.779 L 199.734 147.596 199.767 149.898 M236.072 149.680 L 236.000 151.960 233.700 152.104 L 231.400 152.249 233.713 152.324 C 236.375 152.411,236.521 152.243,236.296 149.349 L 236.144 147.400 236.072 149.680 M94.884 160.680 L 94.800 165.160 92.500 165.304 L 90.200 165.449 92.513 165.524 C 95.325 165.616,95.267 165.733,95.099 160.373 L 94.969 156.200 94.884 160.680 M226.962 156.954 C 226.845 157.259,226.806 158.294,226.875 159.254 L 227.000 161.000 229.302 161.033 L 231.604 161.066 229.402 160.913 L 227.200 160.760 227.200 158.800 L 227.200 156.840 229.500 156.696 L 231.800 156.551 229.487 156.476 C 227.831 156.421,227.115 156.557,226.962 156.954 M186.165 172.600 C 186.166 176.560,186.226 178.126,186.298 176.080 C 186.371 174.034,186.371 170.794,186.298 168.880 C 186.224 166.966,186.165 168.640,186.165 172.600 M154.400 172.361 L 154.400 174.762 151.900 174.911 C 150.525 174.992,151.560 175.046,154.200 175.030 L 159.000 175.000 159.000 172.600 L 159.000 170.200 156.700 170.080 L 154.400 169.960 154.400 172.361 M158.800 172.600 L 158.800 174.800 156.800 174.800 L 154.800 174.800 154.800 172.600 L 154.800 170.400 156.800 170.400 L 158.800 170.400 158.800 172.600 M206.588 175.087 L 208.781 175.239 208.905 181.820 L 209.030 188.401 209.015 181.700 L 209.000 175.000 206.698 174.967 L 204.396 174.934 206.588 175.087 M194.800 181.362 L 194.800 183.560 192.500 183.704 L 190.200 183.849 192.700 183.924 L 195.200 184.000 195.200 181.800 L 195.200 179.600 197.600 179.600 L 200.000 179.600 200.000 181.800 L 200.000 184.000 202.180 184.000 L 204.360 184.000 204.513 186.202 L 204.666 188.404 204.633 186.102 L 204.600 183.800 202.520 183.680 L 200.440 183.560 200.320 181.480 L 200.200 179.400 197.500 179.282 L 194.800 179.163 194.800 181.362 M68.084 183.900 L 68.000 188.400 61.000 188.400 L 54.000 188.400 54.000 190.580 L 54.000 192.760 51.700 192.916 L 49.400 193.072 51.800 193.036 L 54.200 193.000 54.321 190.900 L 54.442 188.800 61.233 188.800 C 69.140 188.800,68.478 189.289,68.299 183.573 L 68.169 179.400 68.084 183.900 M185.600 190.579 L 185.600 192.758 183.500 192.905 L 181.400 193.052 183.700 193.126 L 186.000 193.200 186.000 190.800 C 186.000 189.480,185.910 188.400,185.800 188.400 C 185.690 188.400,185.600 189.381,185.600 190.579 M105.100 193.100 C 113.295 193.160,126.705 193.160,134.900 193.100 C 143.095 193.039,136.390 192.990,120.000 192.990 C 103.610 192.990,96.905 193.039,105.100 193.100 M44.874 199.700 L 44.800 202.000 47.300 201.924 L 49.800 201.849 47.520 201.705 L 45.240 201.561 45.094 199.481 L 44.948 197.400 44.874 199.700 M54.076 208.700 L 54.000 211.200 61.000 211.200 L 68.000 211.200 68.000 215.600 L 68.000 220.000 70.193 220.000 L 72.385 220.000 72.504 229.200 L 72.623 238.400 72.611 229.100 L 72.600 219.800 70.513 219.680 L 68.427 219.559 68.313 215.280 L 68.200 211.000 61.320 210.891 L 54.439 210.781 54.295 208.491 L 54.151 206.200 54.076 208.700 M156.592 206.687 L 158.788 206.840 158.903 218.120 L 159.018 229.400 159.009 218.000 L 159.000 206.600 156.698 206.567 L 154.396 206.534 156.592 206.687 M209.121 208.680 L 209.000 211.000 206.700 211.120 L 204.400 211.240 204.400 213.420 L 204.400 215.600 202.200 215.600 L 200.000 215.600 200.000 217.819 L 200.000 220.038 197.500 219.919 L 195.000 219.800 194.879 217.700 L 194.758 215.600 192.579 215.600 L 190.400 215.600 190.400 213.400 L 190.400 211.200 188.200 211.200 L 186.000 211.200 186.000 229.400 L 186.000 247.600 188.200 247.600 L 190.400 247.600 190.400 254.200 L 190.400 260.800 192.586 260.800 L 194.773 260.800 194.886 256.500 L 195.000 252.200 197.487 252.081 L 199.974 251.962 200.087 247.481 L 200.200 243.000 202.300 242.879 L 204.400 242.758 204.400 238.379 L 204.400 234.000 206.591 234.000 L 208.781 234.000 208.891 227.100 L 209.000 220.200 211.310 220.080 L 213.619 219.960 213.510 213.280 L 213.400 206.600 211.321 206.480 L 209.241 206.360 209.121 208.680 M154.486 229.081 L 154.400 233.962 151.900 234.104 L 149.400 234.246 151.913 234.323 C 154.968 234.417,154.863 234.625,154.699 228.776 L 154.571 224.200 154.486 229.081 M94.886 234.100 L 94.800 238.800 96.990 238.800 L 99.181 238.800 99.290 245.500 L 99.400 252.200 102.000 252.234 L 104.600 252.267 102.100 252.115 L 99.600 251.962 99.600 245.181 L 99.600 238.400 97.413 238.400 L 95.226 238.400 95.099 233.900 L 94.971 229.400 94.886 234.100 M76.890 245.100 L 76.800 252.000 79.300 251.924 L 81.800 251.849 79.510 251.705 L 77.219 251.561 77.099 244.880 L 76.979 238.200 76.890 245.100 M145.067 238.667 C 144.920 238.813,144.800 239.794,144.800 240.846 L 144.800 242.758 142.700 242.879 L 140.600 243.000 140.567 245.302 L 140.534 247.604 140.687 245.402 L 140.840 243.200 143.020 243.200 L 145.200 243.200 145.200 241.020 L 145.200 238.840 147.500 238.696 L 149.800 238.551 147.567 238.476 C 146.338 238.434,145.213 238.520,145.067 238.667 M136.072 249.680 L 136.000 251.960 133.700 252.104 L 131.400 252.249 133.713 252.324 C 136.375 252.411,136.521 252.243,136.296 249.349 L 136.144 247.400 136.072 249.680 M86.086 260.900 L 86.000 265.600 88.187 265.600 L 90.374 265.600 90.501 270.100 L 90.629 274.600 90.714 269.900 L 90.800 265.200 88.613 265.200 L 86.426 265.200 86.299 260.700 L 86.171 256.200 86.086 260.900 M106.585 256.687 L 108.774 256.839 108.908 261.220 L 109.041 265.601 109.021 261.101 L 109.000 256.600 106.698 256.567 L 104.396 256.534 106.585 256.687 M127.067 256.667 C 126.920 256.813,126.800 257.794,126.800 258.846 L 126.800 260.758 124.700 260.879 L 122.600 261.000 122.567 263.302 L 122.534 265.604 122.687 263.402 L 122.840 261.200 125.020 261.200 L 127.200 261.200 127.200 259.020 L 127.200 256.840 129.500 256.696 L 131.800 256.551 129.567 256.476 C 128.338 256.434,127.213 256.520,127.067 256.667 M113.367 267.898 L 113.400 270.200 115.800 270.200 L 118.200 270.200 118.233 267.898 L 118.266 265.596 118.113 267.798 L 117.960 270.000 115.800 270.000 L 113.640 270.000 113.487 267.798 L 113.334 265.596 113.367 267.898 M94.967 276.698 L 95.000 279.000 97.302 279.033 L 99.604 279.066 97.421 278.913 L 95.239 278.761 95.087 276.579 L 94.934 274.396 94.967 276.698 M94.800 286.200 L 94.800 288.400 92.600 288.400 L 90.400 288.400 90.492 297.500 L 90.584 306.600 90.700 297.700 L 90.815 288.800 93.008 288.800 L 95.200 288.800 95.200 286.620 L 95.200 284.440 97.500 284.296 L 99.800 284.151 97.300 284.076 L 94.800 284.000 94.800 286.200 " stroke="none" fill="#e4843c" fill-rule="evenodd"></path><path id="path2" d="M209.200 122.579 L 209.200 124.800 211.421 124.800 L 213.642 124.800 213.521 122.700 L 213.400 120.600 211.300 120.479 L 209.200 120.358 209.200 122.579 M200.000 127.400 L 200.000 129.600 195.200 129.600 L 190.400 129.600 190.400 131.800 L 190.400 134.000 188.200 134.000 L 186.000 134.000 186.000 136.200 L 186.000 138.400 183.800 138.400 L 181.600 138.400 181.600 140.800 L 181.600 143.200 179.400 143.200 L 177.200 143.200 177.200 145.400 L 177.200 147.600 174.800 147.600 L 172.400 147.600 172.400 149.800 L 172.400 152.000 170.200 152.000 L 168.000 152.000 168.000 158.800 L 168.000 165.600 165.800 165.600 L 163.600 165.600 163.600 170.400 L 163.600 175.200 161.400 175.200 L 159.200 175.200 159.200 190.800 L 159.200 206.400 161.400 206.400 L 163.600 206.400 163.600 218.000 L 163.600 229.600 165.800 229.600 L 168.000 229.600 168.000 234.000 L 168.000 238.400 170.200 238.400 L 172.400 238.400 172.400 240.580 L 172.400 242.760 174.700 242.880 L 177.000 243.000 177.121 245.320 L 177.241 247.640 179.321 247.520 L 181.400 247.400 181.400 227.000 L 181.400 206.600 179.100 206.480 L 176.800 206.360 176.800 193.000 L 176.800 179.640 179.100 179.520 L 181.400 179.400 181.509 172.521 L 181.619 165.641 183.709 165.521 L 185.800 165.400 185.913 160.900 L 186.026 156.400 188.213 156.400 L 190.400 156.400 190.400 152.000 L 190.400 147.600 192.600 147.600 L 194.800 147.600 194.800 143.000 L 194.800 138.400 197.400 138.400 L 200.000 138.400 200.000 140.600 L 200.000 142.800 202.200 142.800 L 204.400 142.800 204.400 140.600 L 204.400 138.400 202.200 138.400 L 200.000 138.400 200.000 136.200 L 200.000 134.000 202.200 134.000 L 204.400 134.000 204.400 131.800 L 204.400 129.600 206.600 129.600 L 208.800 129.600 208.800 127.400 L 208.800 125.200 204.400 125.200 L 200.000 125.200 200.000 127.400 M204.400 147.600 L 204.400 152.000 206.800 152.000 L 209.200 152.000 209.200 163.379 L 209.200 174.758 211.300 174.879 L 213.400 175.000 213.508 183.900 L 213.615 192.800 215.808 192.800 L 218.000 192.800 218.000 206.400 L 218.000 220.000 215.800 220.000 L 213.600 220.000 213.600 227.000 L 213.600 234.000 211.413 234.000 L 209.226 234.000 209.113 238.500 L 209.000 243.000 206.700 243.120 L 204.400 243.240 204.400 247.620 L 204.400 252.000 202.200 252.000 L 200.000 252.000 200.000 256.600 L 200.000 261.200 197.621 261.200 L 195.242 261.200 195.121 263.300 L 195.000 265.400 192.700 265.520 L 190.400 265.640 190.400 267.820 L 190.400 270.000 188.200 270.000 L 186.000 270.000 186.000 272.200 L 186.000 274.400 183.800 274.400 L 181.600 274.400 181.600 276.600 L 181.600 278.800 183.800 278.800 L 186.000 278.800 186.000 276.600 L 186.000 274.400 190.400 274.400 L 194.800 274.400 194.800 272.200 L 194.800 270.000 199.600 270.000 L 204.400 270.000 204.400 267.800 L 204.400 265.600 206.580 265.600 L 208.760 265.600 208.880 263.300 L 209.000 261.000 211.300 260.880 L 213.600 260.760 213.600 258.580 L 213.600 256.400 215.800 256.400 L 218.000 256.400 218.000 254.200 L 218.000 252.000 220.200 252.000 L 222.400 252.000 222.400 249.800 L 222.400 247.600 224.600 247.600 L 226.800 247.600 226.800 240.800 L 226.800 234.000 229.200 234.000 L 231.600 234.000 231.600 229.200 L 231.600 224.400 233.800 224.400 L 236.000 224.400 236.000 208.800 L 236.000 193.200 233.800 193.200 L 231.600 193.200 231.600 181.600 L 231.600 170.000 229.200 170.000 L 226.800 170.000 226.800 165.621 L 226.800 161.242 224.700 161.121 L 222.600 161.000 222.480 158.700 L 222.360 156.400 220.180 156.400 L 218.000 156.400 218.000 154.200 L 218.000 152.000 215.800 152.000 L 213.600 152.000 213.600 149.820 L 213.600 147.640 211.300 147.520 L 209.000 147.400 208.879 145.300 L 208.758 143.200 206.579 143.200 L 204.400 143.200 204.400 147.600 M195.200 186.180 L 195.200 188.360 192.900 188.480 L 190.600 188.600 190.480 190.900 L 190.360 193.200 188.180 193.200 L 186.000 193.200 186.000 195.400 L 186.000 197.600 183.800 197.600 L 181.600 197.600 181.600 199.800 L 181.600 202.000 183.800 202.000 L 186.000 202.000 186.000 204.200 L 186.000 206.400 188.200 206.400 L 190.400 206.400 190.400 208.580 L 190.400 210.760 192.700 210.880 L 195.000 211.000 195.121 213.319 L 195.241 215.639 197.521 215.519 L 199.800 215.400 199.920 213.100 L 200.040 210.800 202.220 210.800 L 204.400 210.800 204.400 208.600 L 204.400 206.400 206.600 206.400 L 208.800 206.400 208.800 204.200 L 208.800 202.000 211.200 202.000 L 213.600 202.000 213.600 199.820 L 213.600 197.640 211.300 197.520 L 209.000 197.400 208.880 195.320 L 208.760 193.240 206.680 193.120 L 204.600 193.000 204.480 190.700 L 204.360 188.400 202.180 188.400 L 200.000 188.400 200.000 186.200 L 200.000 184.000 197.600 184.000 L 195.200 184.000 195.200 186.180 " stroke="none" fill="#2f6d82" fill-rule="evenodd"></path><path id="path3" d="M195.120 49.900 L 195.000 52.200 192.900 52.321 L 190.800 52.442 190.800 54.621 L 190.800 56.800 188.609 56.800 L 186.419 56.800 186.309 63.700 L 186.200 70.600 179.500 70.710 L 172.800 70.819 172.800 73.010 L 172.800 75.200 166.000 75.200 L 159.200 75.200 159.200 77.400 L 159.200 79.600 152.220 79.600 L 145.240 79.600 145.120 81.900 L 145.000 84.200 140.720 84.313 L 136.441 84.427 136.320 86.513 L 136.200 88.600 131.700 88.713 L 127.200 88.826 127.200 91.013 L 127.200 93.200 125.000 93.200 L 122.800 93.200 122.800 95.400 L 122.800 97.600 120.620 97.600 L 118.440 97.600 118.320 99.900 L 118.200 102.200 115.800 102.200 L 113.400 102.200 113.287 97.700 L 113.174 93.200 110.987 93.200 L 108.800 93.200 108.800 91.000 L 108.800 88.800 99.800 88.800 L 90.800 88.800 90.800 99.800 L 90.800 110.800 93.000 110.800 L 95.200 110.800 95.200 113.000 L 95.200 115.200 97.400 115.200 L 99.600 115.200 99.600 118.000 L 99.600 120.800 97.400 120.800 L 95.200 120.800 95.200 123.000 L 95.200 125.200 93.000 125.200 L 90.800 125.200 90.800 127.400 L 90.800 129.600 88.613 129.600 L 86.426 129.600 86.313 134.100 L 86.200 138.600 83.900 138.720 L 81.600 138.840 81.600 143.220 L 81.600 147.600 79.400 147.600 L 77.200 147.600 77.200 154.400 L 77.200 161.200 75.000 161.200 L 72.800 161.200 72.800 170.400 L 72.800 179.600 70.613 179.600 L 68.426 179.600 68.313 184.100 L 68.200 188.600 61.321 188.709 L 54.441 188.819 54.321 190.909 L 54.200 193.000 51.900 193.120 L 49.600 193.240 49.600 195.420 L 49.600 197.600 47.400 197.600 L 45.200 197.600 45.200 199.600 L 45.200 201.600 47.400 201.600 L 49.600 201.600 49.600 204.000 L 49.600 206.400 52.000 206.400 L 54.400 206.400 54.400 208.591 L 54.400 210.781 61.300 210.891 L 68.200 211.000 68.313 215.280 L 68.427 219.559 70.513 219.680 L 72.600 219.800 72.707 229.100 L 72.815 238.400 75.007 238.400 L 77.200 238.400 77.200 245.000 L 77.200 251.600 79.400 251.600 L 81.600 251.600 81.600 254.000 L 81.600 256.400 84.000 256.400 L 86.400 256.400 86.400 260.800 L 86.400 265.200 88.600 265.200 L 90.800 265.200 90.800 269.800 L 90.800 274.400 93.000 274.400 L 95.200 274.400 95.200 276.600 L 95.200 278.800 97.400 278.800 L 99.600 278.800 99.600 281.600 L 99.600 284.400 97.400 284.400 L 95.200 284.400 95.200 286.600 L 95.200 288.800 93.000 288.800 L 90.800 288.800 90.800 297.600 L 90.800 306.400 95.200 306.400 L 99.600 306.400 99.600 304.200 L 99.600 302.000 102.000 302.000 L 104.400 302.000 104.400 299.800 L 104.400 297.600 106.580 297.600 L 108.760 297.600 108.880 295.300 L 109.000 293.000 111.300 292.880 L 113.600 292.760 113.600 290.580 L 113.600 288.400 115.800 288.400 L 118.000 288.400 118.000 286.200 L 118.000 284.000 120.181 284.000 L 122.362 284.000 122.481 281.500 L 122.600 279.000 124.680 278.880 L 126.760 278.760 126.880 276.680 L 127.000 274.600 129.300 274.480 L 131.600 274.360 131.600 272.180 L 131.600 270.000 133.800 270.000 L 136.000 270.000 136.000 267.800 L 136.000 265.600 138.180 265.600 L 140.360 265.600 140.480 263.300 L 140.600 261.000 142.680 260.880 L 144.760 260.760 144.880 258.680 L 145.000 256.600 147.300 256.480 L 149.600 256.360 149.600 254.180 L 149.600 252.000 151.987 252.000 L 154.374 252.000 154.487 247.500 L 154.600 243.000 156.680 242.880 L 158.760 242.760 158.880 240.680 L 159.000 238.600 161.100 238.479 L 163.200 238.358 163.200 233.979 L 163.200 229.600 161.000 229.600 L 158.800 229.600 158.800 218.200 L 158.800 206.800 156.600 206.800 L 154.400 206.800 154.400 191.000 L 154.400 175.200 152.000 175.200 L 149.600 175.200 149.600 184.200 L 149.600 193.200 120.000 193.200 L 90.400 193.200 90.400 179.200 L 90.400 165.200 92.600 165.200 L 94.800 165.200 94.800 160.800 L 94.800 156.400 97.000 156.400 L 99.200 156.400 99.200 151.800 L 99.200 147.200 101.800 147.200 L 104.400 147.200 104.400 142.800 L 104.400 138.400 106.580 138.400 L 108.760 138.400 108.880 136.100 L 109.000 133.800 111.100 133.679 L 113.200 133.558 113.200 131.360 L 113.200 129.162 115.700 129.281 L 118.200 129.400 118.320 131.480 L 118.440 133.560 120.520 133.680 L 122.600 133.800 122.720 136.100 L 122.840 138.400 125.020 138.400 L 127.200 138.400 127.200 140.600 L 127.200 142.800 129.400 142.800 L 131.600 142.800 131.600 145.000 L 131.600 147.200 136.200 147.200 L 140.800 147.200 140.800 149.379 L 140.800 151.558 142.900 151.679 L 145.000 151.800 145.120 154.100 L 145.240 156.400 147.420 156.400 L 149.600 156.400 149.600 158.600 L 149.600 160.800 152.200 160.800 L 154.800 160.800 154.800 163.000 L 154.800 165.200 159.000 165.200 L 163.200 165.200 163.200 161.000 L 163.200 156.800 161.000 156.800 L 158.800 156.800 158.800 152.200 L 158.800 147.600 156.600 147.600 L 154.400 147.600 154.400 145.400 L 154.400 143.200 151.800 143.200 L 149.200 143.200 149.200 141.000 L 149.200 138.800 147.000 138.800 L 144.800 138.800 144.800 136.600 L 144.800 134.400 142.600 134.400 L 140.400 134.400 140.400 132.000 L 140.400 129.600 138.000 129.600 L 135.600 129.600 135.600 127.400 L 135.600 125.200 133.400 125.200 L 131.200 125.200 131.200 118.000 L 131.200 110.800 133.400 110.800 L 135.600 110.800 135.600 108.600 L 135.600 106.400 140.180 106.400 L 144.760 106.400 144.880 104.100 L 145.000 101.800 149.700 101.687 L 154.400 101.575 154.400 99.387 L 154.400 97.200 158.800 97.200 L 163.200 97.200 163.200 95.000 L 163.200 92.800 177.000 92.800 L 190.800 92.800 190.800 108.800 L 190.800 124.800 195.200 124.800 L 199.600 124.800 199.600 122.600 L 199.600 120.400 202.000 120.400 L 204.400 120.400 204.400 106.600 L 204.400 92.800 218.000 92.800 L 231.600 92.800 231.600 95.000 L 231.600 97.200 236.200 97.200 L 240.800 97.200 240.800 99.387 L 240.800 101.575 245.500 101.687 L 250.200 101.800 250.320 104.100 L 250.440 106.400 252.620 106.400 L 254.800 106.400 254.800 108.600 L 254.800 110.800 259.200 110.800 L 263.600 110.800 263.600 115.800 L 263.600 120.800 261.400 120.800 L 259.200 120.800 259.200 123.000 L 259.200 125.200 257.013 125.200 L 254.826 125.200 254.713 129.700 L 254.600 134.200 252.520 134.320 L 250.440 134.440 250.320 136.520 L 250.200 138.600 247.700 138.719 L 245.200 138.838 245.200 141.019 L 245.200 143.200 243.000 143.200 L 240.800 143.200 240.800 145.400 L 240.800 147.600 238.620 147.600 L 236.440 147.600 236.320 149.900 L 236.200 152.200 233.900 152.320 L 231.600 152.440 231.600 154.620 L 231.600 156.800 229.400 156.800 L 227.200 156.800 227.200 158.800 L 227.200 160.800 229.400 160.800 L 231.600 160.800 231.600 163.221 L 231.600 165.642 233.700 165.521 L 235.800 165.400 235.920 163.100 L 236.040 160.800 238.220 160.800 L 240.400 160.800 240.400 158.600 L 240.400 156.400 242.600 156.400 L 244.800 156.400 244.800 154.200 L 244.800 152.000 247.400 152.000 L 250.000 152.000 250.000 149.800 L 250.000 147.600 252.180 147.600 L 254.360 147.600 254.480 145.300 L 254.600 143.000 256.680 142.880 L 258.760 142.760 258.880 140.680 L 259.000 138.600 261.300 138.480 L 263.600 138.360 263.600 136.180 L 263.600 134.000 265.800 134.000 L 268.000 134.000 268.000 129.400 L 268.000 124.800 270.200 124.800 L 272.400 124.800 272.400 122.600 L 272.400 120.400 274.600 120.400 L 276.800 120.400 276.800 118.020 L 276.800 115.640 279.100 115.520 L 281.400 115.400 281.520 113.100 L 281.640 110.800 283.820 110.800 L 286.000 110.800 286.000 108.600 L 286.000 106.400 288.200 106.400 L 290.400 106.400 290.400 104.200 L 290.400 102.000 292.600 102.000 L 294.800 102.000 294.800 99.800 L 294.800 97.600 297.400 97.600 L 300.000 97.600 300.000 95.200 L 300.000 92.800 302.200 92.800 L 304.400 92.800 304.400 90.800 L 304.400 88.800 295.421 88.800 L 286.442 88.800 286.321 90.900 L 286.200 93.000 283.900 93.120 L 281.600 93.240 281.600 95.420 L 281.600 97.600 277.000 97.600 L 272.400 97.600 272.400 95.420 L 272.400 93.240 270.100 93.120 L 267.800 93.000 267.679 90.900 L 267.558 88.800 263.179 88.800 L 258.800 88.800 258.800 86.613 L 258.800 84.426 254.300 84.313 L 249.800 84.200 249.680 81.900 L 249.560 79.600 242.580 79.600 L 235.600 79.600 235.600 77.400 L 235.600 75.200 229.000 75.200 L 222.400 75.200 222.400 73.000 L 222.400 70.800 215.600 70.800 L 208.800 70.800 208.800 63.800 L 208.800 56.800 206.600 56.800 L 204.400 56.800 204.400 54.620 L 204.400 52.440 202.100 52.320 L 199.800 52.200 199.680 49.900 L 199.560 47.600 197.400 47.600 L 195.240 47.600 195.120 49.900 M195.200 152.200 L 195.200 156.800 193.000 156.800 L 190.800 156.800 190.800 161.200 L 190.800 165.600 188.600 165.600 L 186.400 165.600 186.400 172.600 L 186.400 179.600 184.000 179.600 L 181.600 179.600 181.600 186.200 L 181.600 192.800 183.600 192.800 L 185.600 192.800 185.600 190.600 L 185.600 188.400 188.000 188.400 L 190.400 188.400 190.400 186.000 L 190.400 183.600 192.600 183.600 L 194.800 183.600 194.800 181.382 L 194.800 179.163 197.500 179.282 L 200.200 179.400 200.320 181.480 L 200.440 183.560 202.520 183.680 L 204.600 183.800 204.720 186.100 L 204.840 188.400 206.820 188.400 L 208.800 188.400 208.800 181.800 L 208.800 175.200 206.600 175.200 L 204.400 175.200 204.400 163.820 L 204.400 152.440 202.100 152.320 L 199.800 152.200 199.680 149.900 L 199.560 147.600 197.380 147.600 L 195.200 147.600 195.200 152.200 M154.800 172.600 L 154.800 174.800 156.800 174.800 L 158.800 174.800 158.800 172.600 L 158.800 170.400 156.800 170.400 L 154.800 170.400 154.800 172.600 M149.600 215.400 L 149.600 224.400 152.212 224.400 L 154.825 224.400 154.712 229.300 L 154.600 234.200 152.100 234.319 L 149.600 234.438 149.600 236.619 L 149.600 238.800 147.400 238.800 L 145.200 238.800 145.200 241.000 L 145.200 243.200 143.000 243.200 L 140.800 243.200 140.800 245.400 L 140.800 247.600 138.620 247.600 L 136.440 247.600 136.320 249.900 L 136.200 252.200 133.900 252.320 L 131.600 252.440 131.600 254.620 L 131.600 256.800 129.400 256.800 L 127.200 256.800 127.200 259.000 L 127.200 261.200 125.000 261.200 L 122.800 261.200 122.800 263.400 L 122.800 265.600 120.620 265.600 L 118.440 265.600 118.320 267.900 L 118.200 270.200 115.800 270.200 L 113.400 270.200 113.280 267.900 L 113.160 265.600 110.980 265.600 L 108.800 265.600 108.800 261.200 L 108.800 256.800 106.600 256.800 L 104.400 256.800 104.400 254.619 L 104.400 252.438 101.900 252.319 L 99.400 252.200 99.290 245.500 L 99.181 238.800 96.990 238.800 L 94.800 238.800 94.800 234.200 L 94.800 229.600 92.600 229.600 L 90.400 229.600 90.400 218.000 L 90.400 206.400 120.000 206.400 L 149.600 206.400 149.600 215.400 " stroke="none" fill="#dc7424" fill-rule="evenodd"></path><path id="path4" d="" stroke="none" fill="#c0100d0" fill-rule="evenodd"></path></g></svg>