{
	"asset":{
		"generator":"Khronos glTF Blender I/O v3.6.27",
		"version":"2.0"
	},
	"scene":0,
	"scenes":[
		{
			"name":"Scene",
			"nodes":[
				0,
				1,
				2,
				3,
				4,
				5,
				6,
				7,
				8,
				9,
				10,
				11,
				12,
				13,
				14
			]
		}
	],
	"nodes":[
		{
			"mesh":0,
			"name":"Plane",
			"rotation":[
				-0.11137118935585022,
				0.02778150886297226,
				0.03403923660516739,
				0.992807149887085
			]
		},
		{
			"mesh":1,
			"name":"Plane.001",
			"rotation":[
				0.016025958582758904,
				-0.25878337025642395,
				0.004294143058359623,
				0.9657928943634033
			]
		},
		{
			"mesh":2,
			"name":"Plane.002",
			"rotation":[
				0,
				0.17196965217590332,
				0,
				0.9851022362709045
			],
			"scale":[
				1,
				1.3467693328857422,
				1
			],
			"translation":[
				0,
				0.018931478261947632,
				0
			]
		},
		{
			"mesh":3,
			"name":"Plane.003",
			"rotation":[
				0,
				-0.5,
				0,
				0.8660253882408142
			]
		},
		{
			"mesh":4,
			"name":"Plane.004",
			"rotation":[
				-0.06795606762170792,
				-0.8579895496368408,
				-0.117703378200531,
				0.49536049365997314
			]
		},
		{
			"mesh":5,
			"name":"Plane.005",
			"rotation":[
				0.007425285410135984,
				0.9993528127670288,
				0.02552185021340847,
				0.024237975478172302
			]
		},
		{
			"mesh":6,
			"name":"Plane.006",
			"rotation":[
				-0.02182447910308838,
				0.8592601418495178,
				0.108033686876297,
				0.49952417612075806
			],
			"translation":[
				-0.03219606727361679,
				-0.007823877036571503,
				0.018011759966611862
			]
		},
		{
			"mesh":7,
			"name":"Plane.007",
			"rotation":[
				0.0012100719613954425,
				0.49999913573265076,
				-0.0006986379739828408,
				0.8660247921943665
			]
		},
		{
			"mesh":8,
			"name":"Plane.008",
			"rotation":[
				-0.012610901147127151,
				-0.9647785425186157,
				-0.04706452041864395,
				0.25851163268089294
			]
		},
		{
			"mesh":9,
			"name":"Plane.009",
			"rotation":[
				-0.0037800695281475782,
				0.7070966958999634,
				0.0037800695281475782,
				0.7070966362953186
			]
		},
		{
			"mesh":10,
			"name":"Plane.010",
			"rotation":[
				0,
				-0.7671387791633606,
				0,
				0.6414812207221985
			],
			"scale":[
				1,
				1.3467693328857422,
				1
			],
			"translation":[
				0,
				0.018931478261947632,
				0
			]
		},
		{
			"mesh":11,
			"name":"Plane.011",
			"rotation":[
				-0.016455896198749542,
				0.9380307793617249,
				0.04497354105114937,
				0.3432270288467407
			],
			"scale":[
				1,
				1.3467693328857422,
				1
			],
			"translation":[
				0,
				0.018931478261947632,
				0
			]
		},
		{
			"mesh":12,
			"name":"Vert",
			"rotation":[
				0,
				-0.2676827311515808,
				0,
				0.9635071158409119
			],
			"scale":[
				1,
				1.0972572565078735,
				1
			]
		},
		{
			"mesh":13,
			"name":"Vert.001",
			"rotation":[
				0.017422407865524292,
				-0.4681312143802643,
				-0.052517689764499664,
				0.8819249272346497
			]
		},
		{
			"mesh":14,
			"name":"Vert.002",
			"rotation":[
				-0.04395604133605957,
				-0.8818410634994507,
				-0.03774277865886688,
				0.4679739773273468
			],
			"scale":[
				0.8721874356269836,
				0.8721874952316284,
				0.8721874952316284
			]
		}
	],
	"materials":[
		{
			"doubleSided":true,
			"name":"Material.004",
			"pbrMetallicRoughness":{
				"baseColorFactor":[
					0,
					0.05951114743947983,
					0.2086368203163147,
					1
				],
				"metallicFactor":0,
				"roughnessFactor":0.550000011920929
			}
		},
		{
			"doubleSided":true,
			"name":"Material.003",
			"pbrMetallicRoughness":{
				"baseColorFactor":[
					0.48514971137046814,
					0.23073981702327728,
					0.262250691652298,
					1
				],
				"metallicFactor":0,
				"roughnessFactor":0.5
			}
		},
		{
			"doubleSided":true,
			"name":"Material.002",
			"pbrMetallicRoughness":{
				"baseColorFactor":[
					0.2158603072166443,
					0.1274375021457672,
					0.28314870595932007,
					1
				],
				"metallicFactor":0,
				"roughnessFactor":0.6045454740524292
			}
		},
		{
			"doubleSided":true,
			"name":"Material.001",
			"pbrMetallicRoughness":{
				"baseColorFactor":[
					0.0006069598603062332,
					0.03071340173482895,
					0.11193238943815231,
					1
				],
				"metallicFactor":0,
				"roughnessFactor":0.5
			}
		}
	],
	"meshes":[
		{
			"name":"Plane.003",
			"primitives":[
				{
					"attributes":{
						"POSITION":0,
						"NORMAL":1,
						"TEXCOORD_0":2
					},
					"indices":3,
					"material":0
				}
			]
		},
		{
			"name":"Plane.010",
			"primitives":[
				{
					"attributes":{
						"POSITION":4,
						"NORMAL":5,
						"TEXCOORD_0":6
					},
					"indices":7,
					"material":1
				}
			]
		},
		{
			"name":"Plane.011",
			"primitives":[
				{
					"attributes":{
						"POSITION":8,
						"NORMAL":9,
						"TEXCOORD_0":10
					},
					"indices":11,
					"material":2
				}
			]
		},
		{
			"name":"Plane.007",
			"primitives":[
				{
					"attributes":{
						"POSITION":12,
						"NORMAL":13,
						"TEXCOORD_0":14
					},
					"indices":3,
					"material":0
				}
			]
		},
		{
			"name":"Plane.006",
			"primitives":[
				{
					"attributes":{
						"POSITION":15,
						"NORMAL":16,
						"TEXCOORD_0":17
					},
					"indices":3,
					"material":0
				}
			]
		},
		{
			"name":"Plane.005",
			"primitives":[
				{
					"attributes":{
						"POSITION":18,
						"NORMAL":19,
						"TEXCOORD_0":20
					},
					"indices":3,
					"material":0
				}
			]
		},
		{
			"name":"Plane.009",
			"primitives":[
				{
					"attributes":{
						"POSITION":21,
						"NORMAL":22,
						"TEXCOORD_0":23
					},
					"indices":24,
					"material":0
				}
			]
		},
		{
			"name":"Plane.008",
			"primitives":[
				{
					"attributes":{
						"POSITION":25,
						"NORMAL":26,
						"TEXCOORD_0":27
					},
					"indices":3,
					"material":0
				}
			]
		},
		{
			"name":"Plane.012",
			"primitives":[
				{
					"attributes":{
						"POSITION":28,
						"NORMAL":29,
						"TEXCOORD_0":30
					},
					"indices":7,
					"material":1
				}
			]
		},
		{
			"name":"Plane.001",
			"primitives":[
				{
					"attributes":{
						"POSITION":31,
						"NORMAL":32,
						"TEXCOORD_0":33
					},
					"indices":7,
					"material":1
				}
			]
		},
		{
			"name":"Plane.013",
			"primitives":[
				{
					"attributes":{
						"POSITION":34,
						"NORMAL":35,
						"TEXCOORD_0":36
					},
					"indices":11,
					"material":2
				}
			]
		},
		{
			"name":"Plane.002",
			"primitives":[
				{
					"attributes":{
						"POSITION":37,
						"NORMAL":38,
						"TEXCOORD_0":39
					},
					"indices":11,
					"material":2
				}
			]
		},
		{
			"name":"Vert.004",
			"primitives":[
				{
					"attributes":{
						"POSITION":40,
						"NORMAL":41,
						"TEXCOORD_0":42
					},
					"indices":43,
					"material":3
				}
			]
		},
		{
			"name":"Vert.005",
			"primitives":[
				{
					"attributes":{
						"POSITION":44,
						"NORMAL":45,
						"TEXCOORD_0":46
					},
					"indices":43,
					"material":3
				}
			]
		},
		{
			"name":"Vert.003",
			"primitives":[
				{
					"attributes":{
						"POSITION":47,
						"NORMAL":48,
						"TEXCOORD_0":49
					},
					"indices":43,
					"material":3
				}
			]
		}
	],
	"accessors":[
		{
			"bufferView":0,
			"componentType":5126,
			"count":3972,
			"max":[
				0.9827733039855957,
				1.37114679813385,
				0.04893738776445389
			],
			"min":[
				-0.9815810918807983,
				-0.038903720676898956,
				-3.3415894508361816
			],
			"type":"VEC3"
		},
		{
			"bufferView":1,
			"componentType":5126,
			"count":3972,
			"type":"VEC3"
		},
		{
			"bufferView":2,
			"componentType":5126,
			"count":3972,
			"type":"VEC2"
		},
		{
			"bufferView":3,
			"componentType":5123,
			"count":23808,
			"type":"SCALAR"
		},
		{
			"bufferView":4,
			"componentType":5126,
			"count":670,
			"max":[
				0.47721007466316223,
				1.6053352355957031,
				-0.05124218389391899
			],
			"min":[
				-0.47721007466316223,
				-0.07288774847984314,
				-1.417468547821045
			],
			"type":"VEC3"
		},
		{
			"bufferView":5,
			"componentType":5126,
			"count":670,
			"type":"VEC3"
		},
		{
			"bufferView":6,
			"componentType":5126,
			"count":670,
			"type":"VEC2"
		},
		{
			"bufferView":7,
			"componentType":5123,
			"count":3840,
			"type":"SCALAR"
		},
		{
			"bufferView":8,
			"componentType":5126,
			"count":354,
			"max":[
				0.2831818759441376,
				1.8083012104034424,
				-0.03669214993715286
			],
			"min":[
				-0.28318190574645996,
				0.042835649102926254,
				-1.688322901725769
			],
			"type":"VEC3"
		},
		{
			"bufferView":9,
			"componentType":5126,
			"count":354,
			"type":"VEC3"
		},
		{
			"bufferView":10,
			"componentType":5126,
			"count":354,
			"type":"VEC2"
		},
		{
			"bufferView":11,
			"componentType":5123,
			"count":2112,
			"type":"SCALAR"
		},
		{
			"bufferView":12,
			"componentType":5126,
			"count":3972,
			"max":[
				0.9827733039855957,
				1.37114679813385,
				0.04893738776445389
			],
			"min":[
				-0.9815810918807983,
				-0.038903720676898956,
				-3.3415894508361816
			],
			"type":"VEC3"
		},
		{
			"bufferView":13,
			"componentType":5126,
			"count":3972,
			"type":"VEC3"
		},
		{
			"bufferView":14,
			"componentType":5126,
			"count":3972,
			"type":"VEC2"
		},
		{
			"bufferView":15,
			"componentType":5126,
			"count":3972,
			"max":[
				0.9827733039855957,
				1.37114679813385,
				0.04893738776445389
			],
			"min":[
				-0.9815810918807983,
				-0.038903720676898956,
				-3.3415894508361816
			],
			"type":"VEC3"
		},
		{
			"bufferView":16,
			"componentType":5126,
			"count":3972,
			"type":"VEC3"
		},
		{
			"bufferView":17,
			"componentType":5126,
			"count":3972,
			"type":"VEC2"
		},
		{
			"bufferView":18,
			"componentType":5126,
			"count":3972,
			"max":[
				0.9827733039855957,
				1.37114679813385,
				0.04893738776445389
			],
			"min":[
				-0.9815810918807983,
				-0.038903720676898956,
				-3.3415894508361816
			],
			"type":"VEC3"
		},
		{
			"bufferView":19,
			"componentType":5126,
			"count":3972,
			"type":"VEC3"
		},
		{
			"bufferView":20,
			"componentType":5126,
			"count":3972,
			"type":"VEC2"
		},
		{
			"bufferView":21,
			"componentType":5126,
			"count":1986,
			"max":[
				0.9827733039855957,
				1.37114679813385,
				0.04893738776445389
			],
			"min":[
				-0.9815810918807983,
				-0.038903720676898956,
				-3.3415894508361816
			],
			"type":"VEC3"
		},
		{
			"bufferView":22,
			"componentType":5126,
			"count":1986,
			"type":"VEC3"
		},
		{
			"bufferView":23,
			"componentType":5126,
			"count":1986,
			"type":"VEC2"
		},
		{
			"bufferView":24,
			"componentType":5123,
			"count":11904,
			"type":"SCALAR"
		},
		{
			"bufferView":25,
			"componentType":5126,
			"count":3972,
			"max":[
				0.9827733039855957,
				1.37114679813385,
				0.04893738776445389
			],
			"min":[
				-0.9815810918807983,
				-0.038903720676898956,
				-3.3415894508361816
			],
			"type":"VEC3"
		},
		{
			"bufferView":26,
			"componentType":5126,
			"count":3972,
			"type":"VEC3"
		},
		{
			"bufferView":27,
			"componentType":5126,
			"count":3972,
			"type":"VEC2"
		},
		{
			"bufferView":28,
			"componentType":5126,
			"count":670,
			"max":[
				0.47721007466316223,
				1.6053352355957031,
				-0.05124218389391899
			],
			"min":[
				-0.47721007466316223,
				-0.07288774847984314,
				-1.417468547821045
			],
			"type":"VEC3"
		},
		{
			"bufferView":29,
			"componentType":5126,
			"count":670,
			"type":"VEC3"
		},
		{
			"bufferView":30,
			"componentType":5126,
			"count":670,
			"type":"VEC2"
		},
		{
			"bufferView":31,
			"componentType":5126,
			"count":670,
			"max":[
				0.47721007466316223,
				1.6053352355957031,
				-0.05124218389391899
			],
			"min":[
				-0.47721007466316223,
				-0.07288774847984314,
				-1.417468547821045
			],
			"type":"VEC3"
		},
		{
			"bufferView":32,
			"componentType":5126,
			"count":670,
			"type":"VEC3"
		},
		{
			"bufferView":33,
			"componentType":5126,
			"count":670,
			"type":"VEC2"
		},
		{
			"bufferView":34,
			"componentType":5126,
			"count":354,
			"max":[
				0.2831818759441376,
				1.8083012104034424,
				-0.03669214993715286
			],
			"min":[
				-0.28318190574645996,
				0.042835649102926254,
				-1.688322901725769
			],
			"type":"VEC3"
		},
		{
			"bufferView":35,
			"componentType":5126,
			"count":354,
			"type":"VEC3"
		},
		{
			"bufferView":36,
			"componentType":5126,
			"count":354,
			"type":"VEC2"
		},
		{
			"bufferView":37,
			"componentType":5126,
			"count":354,
			"max":[
				0.2831818759441376,
				1.8083012104034424,
				-0.03669214993715286
			],
			"min":[
				-0.28318190574645996,
				0.042835649102926254,
				-1.688322901725769
			],
			"type":"VEC3"
		},
		{
			"bufferView":38,
			"componentType":5126,
			"count":354,
			"type":"VEC3"
		},
		{
			"bufferView":39,
			"componentType":5126,
			"count":354,
			"type":"VEC2"
		},
		{
			"bufferView":40,
			"componentType":5126,
			"count":3855,
			"max":[
				0.602117657661438,
				3.3973095417022705,
				0.2567368745803833
			],
			"min":[
				-0.6447926759719849,
				-0.009230943396687508,
				-0.14833305776119232
			],
			"type":"VEC3"
		},
		{
			"bufferView":41,
			"componentType":5126,
			"count":3855,
			"type":"VEC3"
		},
		{
			"bufferView":42,
			"componentType":5126,
			"count":3855,
			"type":"VEC2"
		},
		{
			"bufferView":43,
			"componentType":5123,
			"count":22080,
			"type":"SCALAR"
		},
		{
			"bufferView":44,
			"componentType":5126,
			"count":3855,
			"max":[
				0.602117657661438,
				3.3973095417022705,
				0.2567368745803833
			],
			"min":[
				-0.6447926759719849,
				-0.009230943396687508,
				-0.14833305776119232
			],
			"type":"VEC3"
		},
		{
			"bufferView":45,
			"componentType":5126,
			"count":3855,
			"type":"VEC3"
		},
		{
			"bufferView":46,
			"componentType":5126,
			"count":3855,
			"type":"VEC2"
		},
		{
			"bufferView":47,
			"componentType":5126,
			"count":3855,
			"max":[
				0.602117657661438,
				3.3973095417022705,
				0.2567368745803833
			],
			"min":[
				-0.6447926759719849,
				-0.009230943396687508,
				-0.14833305776119232
			],
			"type":"VEC3"
		},
		{
			"bufferView":48,
			"componentType":5126,
			"count":3855,
			"type":"VEC3"
		},
		{
			"bufferView":49,
			"componentType":5126,
			"count":3855,
			"type":"VEC2"
		}
	],
	"bufferViews":[
		{
			"buffer":0,
			"byteLength":47664,
			"byteOffset":0,
			"target":34962
		},
		{
			"buffer":0,
			"byteLength":47664,
			"byteOffset":47664,
			"target":34962
		},
		{
			"buffer":0,
			"byteLength":31776,
			"byteOffset":95328,
			"target":34962
		},
		{
			"buffer":0,
			"byteLength":47616,
			"byteOffset":127104,
			"target":34963
		},
		{
			"buffer":0,
			"byteLength":8040,
			"byteOffset":174720,
			"target":34962
		},
		{
			"buffer":0,
			"byteLength":8040,
			"byteOffset":182760,
			"target":34962
		},
		{
			"buffer":0,
			"byteLength":5360,
			"byteOffset":190800,
			"target":34962
		},
		{
			"buffer":0,
			"byteLength":7680,
			"byteOffset":196160,
			"target":34963
		},
		{
			"buffer":0,
			"byteLength":4248,
			"byteOffset":203840,
			"target":34962
		},
		{
			"buffer":0,
			"byteLength":4248,
			"byteOffset":208088,
			"target":34962
		},
		{
			"buffer":0,
			"byteLength":2832,
			"byteOffset":212336,
			"target":34962
		},
		{
			"buffer":0,
			"byteLength":4224,
			"byteOffset":215168,
			"target":34963
		},
		{
			"buffer":0,
			"byteLength":47664,
			"byteOffset":219392,
			"target":34962
		},
		{
			"buffer":0,
			"byteLength":47664,
			"byteOffset":267056,
			"target":34962
		},
		{
			"buffer":0,
			"byteLength":31776,
			"byteOffset":314720,
			"target":34962
		},
		{
			"buffer":0,
			"byteLength":47664,
			"byteOffset":346496,
			"target":34962
		},
		{
			"buffer":0,
			"byteLength":47664,
			"byteOffset":394160,
			"target":34962
		},
		{
			"buffer":0,
			"byteLength":31776,
			"byteOffset":441824,
			"target":34962
		},
		{
			"buffer":0,
			"byteLength":47664,
			"byteOffset":473600,
			"target":34962
		},
		{
			"buffer":0,
			"byteLength":47664,
			"byteOffset":521264,
			"target":34962
		},
		{
			"buffer":0,
			"byteLength":31776,
			"byteOffset":568928,
			"target":34962
		},
		{
			"buffer":0,
			"byteLength":23832,
			"byteOffset":600704,
			"target":34962
		},
		{
			"buffer":0,
			"byteLength":23832,
			"byteOffset":624536,
			"target":34962
		},
		{
			"buffer":0,
			"byteLength":15888,
			"byteOffset":648368,
			"target":34962
		},
		{
			"buffer":0,
			"byteLength":23808,
			"byteOffset":664256,
			"target":34963
		},
		{
			"buffer":0,
			"byteLength":47664,
			"byteOffset":688064,
			"target":34962
		},
		{
			"buffer":0,
			"byteLength":47664,
			"byteOffset":735728,
			"target":34962
		},
		{
			"buffer":0,
			"byteLength":31776,
			"byteOffset":783392,
			"target":34962
		},
		{
			"buffer":0,
			"byteLength":8040,
			"byteOffset":815168,
			"target":34962
		},
		{
			"buffer":0,
			"byteLength":8040,
			"byteOffset":823208,
			"target":34962
		},
		{
			"buffer":0,
			"byteLength":5360,
			"byteOffset":831248,
			"target":34962
		},
		{
			"buffer":0,
			"byteLength":8040,
			"byteOffset":836608,
			"target":34962
		},
		{
			"buffer":0,
			"byteLength":8040,
			"byteOffset":844648,
			"target":34962
		},
		{
			"buffer":0,
			"byteLength":5360,
			"byteOffset":852688,
			"target":34962
		},
		{
			"buffer":0,
			"byteLength":4248,
			"byteOffset":858048,
			"target":34962
		},
		{
			"buffer":0,
			"byteLength":4248,
			"byteOffset":862296,
			"target":34962
		},
		{
			"buffer":0,
			"byteLength":2832,
			"byteOffset":866544,
			"target":34962
		},
		{
			"buffer":0,
			"byteLength":4248,
			"byteOffset":869376,
			"target":34962
		},
		{
			"buffer":0,
			"byteLength":4248,
			"byteOffset":873624,
			"target":34962
		},
		{
			"buffer":0,
			"byteLength":2832,
			"byteOffset":877872,
			"target":34962
		},
		{
			"buffer":0,
			"byteLength":46260,
			"byteOffset":880704,
			"target":34962
		},
		{
			"buffer":0,
			"byteLength":46260,
			"byteOffset":926964,
			"target":34962
		},
		{
			"buffer":0,
			"byteLength":30840,
			"byteOffset":973224,
			"target":34962
		},
		{
			"buffer":0,
			"byteLength":44160,
			"byteOffset":1004064,
			"target":34963
		},
		{
			"buffer":0,
			"byteLength":46260,
			"byteOffset":1048224,
			"target":34962
		},
		{
			"buffer":0,
			"byteLength":46260,
			"byteOffset":1094484,
			"target":34962
		},
		{
			"buffer":0,
			"byteLength":30840,
			"byteOffset":1140744,
			"target":34962
		},
		{
			"buffer":0,
			"byteLength":46260,
			"byteOffset":1171584,
			"target":34962
		},
		{
			"buffer":0,
			"byteLength":46260,
			"byteOffset":1217844,
			"target":34962
		},
		{
			"buffer":0,
			"byteLength":30840,
			"byteOffset":1264104,
			"target":34962
		}
	],
	"buffers":[
		{
			"byteLength":1294944,
			"uri":"data:application/octet-stream;base64,"
		}
	]
}
